<svg xmlns="http://www.w3.org/2000/svg" xmlns:xlink="http://www.w3.org/1999/xlink" width="62.365" height="45.233" viewBox="0 0 62.365 45.233">
  <defs>
    <path id="path-1" fill-rule="evenodd" d="M16.50583941-3.13667939h26.7569396v53.7716727H16.5058394V-3.1366794z"/>
    <mask id="mask-2" maskContentUnits="userSpaceOnUse" maskUnits="userSpaceOnUse">
      <rect width="62.365" height="45.233" x="0" y="0" fill="black"/>
      <use fill="white" xlink:href="#path-1"/>
    </mask>
    <path id="path-4" fill-rule="evenodd" d="M32.79472881-5.40196616H45.8591469V7.37339701H32.7947288V-5.40196616z"/>
    <mask id="mask-5" maskContentUnits="userSpaceOnUse" maskUnits="userSpaceOnUse">
      <rect width="62.365" height="45.233" x="0" y="0" fill="black"/>
      <use fill="white" xlink:href="#path-4"/>
    </mask>
  </defs>
  <g transform="rotate(-72.000026 31.18249316 22.61651358)">
    <g>
      <use fill="none" xlink:href="#path-1"/>
      <g mask="url(#mask-2)">
        <path fill="rgb(22,22,21)" fill-rule="evenodd" d="M27.96017994 49.41127763c-2.7470337-4.38056162-5.64473746-8.64820037-7.04298197-13.79755354-1.4338754-5.28015696-1.48497649-10.9515802.07340125-16.20672149 1.49353449-5.03678264 4.46431035-9.47451035 8.23525862-12.85312375 1.88070141-1.68503466 4.00686913-3.09190208 6.2453605-4.16484547 2.24663794-1.07690715 4.94734327-1.22532761 7.06602273-2.44792464 1.09246082-.63050068.9350431-2.71763587-.36305642-2.97272528-2.5526685-.50154665-5.54837775.89748134-7.86413793 1.97817608-2.62763323 1.22620844-5.04485502 2.860419-7.25306427 4.81384365-4.23176332 3.74371893-7.49630877 8.78279174-9.2052743 14.37300212-1.74459639 5.70674467-1.74212774 11.983741-.28768024 17.7607762 1.44909874 5.75607135 4.36095611 11.68919025 9.34434169 14.64297761.63806426.37822995 1.49888323-.41302287 1.05181034-1.1258815"/>
      </g>
    </g>
    <g>
      <use fill="none" xlink:href="#path-4"/>
      <g mask="url(#mask-5)">
        <path fill="rgb(22,22,21)" fill-rule="evenodd" d="M33.0174605-3.41709575c1.2394279 1.27483046 3.0152116 1.28980463 4.6583464 1.49521503 2.18969436.273675 4.38967477.46816305 6.58373041.69717978-.51742947-.72704004-1.03477664-1.45408009-1.55220611-2.18112014-.64678684 2.91749702-1.90711599 6.30668043-1.736779 9.31675306.07916144 1.39999691 1.85617947 2.07524394 2.56172022.74271889 1.39380094-2.63210694 1.66214342-6.21031724 2.27938872-9.14331693.2447257-1.16225992-.48402038-2.08273102-1.55212383-2.18112014-2.0567163-.1894673-4.11310345-.40588811-6.17220611-.56364541-1.65226881-.12666387-3.47331113-.4891269-4.91426332.52497682-.40321317.2837165-.52878527.90849177-.15560737 1.29235904"/>
      </g>
    </g>
  </g>
</svg>
