<svg id="Layer_1" data-name="Layer 1" xmlns="http://www.w3.org/2000/svg" viewBox="0 0 194.4 302.4"><defs><style>.cls-1{fill:#fff;}.cls-2{fill:#006595;}</style></defs><path class="cls-1" d="M189.4,277.55a18.05,18.05,0,0,1-18,18H22.4a18.05,18.05,0,0,1-18-18V23.75a18.05,18.05,0,0,1,18-18h149a18.05,18.05,0,0,1,18,18Z"/><path class="cls-2" d="M171.9,5.35A17.89,17.89,0,0,1,190,23.05v256.3a18,18,0,0,1-18.1,17.7H23.4a17.89,17.89,0,0,1-18.1-17.7V23.05A18,18,0,0,1,23.4,5.35H171.9m0,1.2H23.4A16.73,16.73,0,0,0,6.5,23.05v256.3a16.73,16.73,0,0,0,16.9,16.5H171.9a16.73,16.73,0,0,0,16.9-16.5V23.05a16.73,16.73,0,0,0-16.9-16.5Z"/><path class="cls-2" d="M184.4,239.35v40.3a12.64,12.64,0,0,1-12.8,12.5H23.1a12.64,12.64,0,0,1-12.8-12.5v-40.3Z"/><path class="cls-2" d="M184.4,239.35v40.3a12.64,12.64,0,0,1-12.8,12.5H23.1a12.64,12.64,0,0,1-12.8-12.5v-40.3Z"/><path class="cls-1" d="M28.5,245.75h3.2l6.7,15.3H34.8l-1.4-3.4H26.8l-1.4,3.4H21.9Zm3.6,9-2.1-4.9-2.1,4.9Z"/><path class="cls-1" d="M39.1,253.55h0a7.78,7.78,0,0,1,8.1-7.9,8.79,8.79,0,0,1,6.2,2.3l-2.2,2.5a5.61,5.61,0,0,0-4-1.7,4.53,4.53,0,0,0-4.5,4.7h0a4.62,4.62,0,0,0,4.5,4.8,5.59,5.59,0,0,0,4.1-1.8l2.2,2.2a8,8,0,0,1-6.4,2.7A7.79,7.79,0,0,1,39.1,253.55Z"/><path class="cls-1" d="M55.1,253.55h0a7.78,7.78,0,0,1,8.1-7.9,8.79,8.79,0,0,1,6.2,2.3l-2.2,2.5a5.61,5.61,0,0,0-4-1.7,4.53,4.53,0,0,0-4.5,4.7h0a4.62,4.62,0,0,0,4.5,4.8,5.59,5.59,0,0,0,4.1-1.8l2.2,2.2a8,8,0,0,1-6.4,2.7A7.79,7.79,0,0,1,55.1,253.55Z"/><path class="cls-1" d="M72.2,245.85h7.1a6.11,6.11,0,0,1,4.5,1.5,4.46,4.46,0,0,1,1.3,3.5h0a4.72,4.72,0,0,1-3.3,4.7l3.9,5.5h-4l-3.3-4.9H75.7v4.9H72.3v-15.2Zm6.9,7.4c1.7,0,2.6-.9,2.6-2.2h0c0-1.4-1-2.2-2.7-2.2H75.7v4.4Z"/><path class="cls-1" d="M88.4,245.85h11.8v3H91.8V252h7.4v3H91.8v3.2h8.5v3H88.4Z"/><path class="cls-1" d="M103.3,245.85h6.1c4.9,0,8.3,3.3,8.3,7.6h0c0,4.3-3.4,7.6-8.3,7.6h-6.1Zm6.1,12.2a4.36,4.36,0,0,0,4.7-4.5h0a4.44,4.44,0,0,0-4.7-4.6h-2.7v9.2h2.7Z"/><path class="cls-1" d="M120.9,245.85h3.4v15.2h-3.4Z"/><path class="cls-1" d="M131.8,249h-4.7v-3.1H140V249h-4.7v12.1h-3.4V249Z"/><path class="cls-1" d="M142.6,245.85h11.8v3H146V252h7.4v3H146v3.2h8.5v3H142.6v-15.3Z"/><path class="cls-1" d="M157.6,245.85h6.1c4.9,0,8.3,3.3,8.3,7.6h0c0,4.3-3.4,7.6-8.3,7.6h-6.1Zm6.1,12.2a4.36,4.36,0,0,0,4.7-4.5h0a4.44,4.44,0,0,0-4.7-4.6H161v9.2h2.7Z"/><polygon class="cls-2" points="139.6 146.65 57.3 146.65 54.4 156.15 76.3 156.15 80.5 169.45 116.5 169.45 120.7 156.15 142.6 156.15 139.6 146.65"/><path class="cls-2" d="M70.8,92.75a18.63,18.63,0,0,0,4.3,26.5l19.7,13.9a4.28,4.28,0,0,1,1.9,3.1,4.47,4.47,0,0,1-.9,3.5l3,2.1,10.4-14a18.73,18.73,0,0,0,3.7-11.1c0-1-.1-2-.2-3a18.88,18.88,0,0,0-7.8-12.4L85.2,87.55a4.28,4.28,0,0,1-1.9-3.1c0-.3-.1-.5-.1-.8a4.68,4.68,0,0,1,.9-2.8h0l-3-2.1C81.2,78.85,70.8,92.75,70.8,92.75Z"/><path class="cls-2" d="M82.6,36.75a26.89,26.89,0,0,0-5.4,16.1,21.83,21.83,0,0,0,.4,4.4,27.31,27.31,0,0,0,11.3,17.9l24.7,17.5a14.7,14.7,0,0,1,6.1,9.6,19.53,19.53,0,0,1,.2,2.3,14.16,14.16,0,0,1-2.9,8.6h0l2.4,1.7,19.5-26.3a26.79,26.79,0,0,0,5-20.5,27.31,27.31,0,0,0-11.3-17.9l-29.9-21.1a8.43,8.43,0,0,1-3.5-5.5,8.33,8.33,0,0,1,1.5-6.3l-2.4-1.7Z"/><path class="cls-2" d="M32.1,177.45H54.6c5.5,0,9.9,1.5,12.7,4.2a10.79,10.79,0,0,1,3.3,8v.1c0,5.3-2.9,8.3-6.4,10.2,5.6,2.1,9.1,5.3,9.1,11.6v.1c0,8.6-7.2,13-18.2,13h-23Zm20.2,19.1c4.7,0,7.7-1.5,7.7-5v-.1c0-3.1-2.5-4.9-7-4.9H42.5v10Zm2.9,19c4.7,0,7.6-1.6,7.6-5.1v-.1c0-3.2-2.4-5.1-7.9-5.1H42.5v10.4H55.2Z"/><path class="cls-2" d="M78,177.45h22.5c5.6,0,9.9,1.5,12.7,4.2a10.79,10.79,0,0,1,3.3,8v.1c0,5.3-2.9,8.3-6.4,10.2,5.6,2.1,9.1,5.3,9.1,11.6v.1c0,8.6-7.2,13-18.2,13H78Zm20.2,19.1c4.7,0,7.7-1.5,7.7-5v-.1c0-3.1-2.5-4.9-7-4.9H88.4v10Zm2.9,19c4.7,0,7.6-1.6,7.6-5.1v-.1c0-3.2-2.4-5.1-7.9-5.1H88.4v10.4h12.7Z"/><path class="cls-2" d="M123.9,177.45h22.5c5.5,0,9.9,1.5,12.7,4.2a10.79,10.79,0,0,1,3.3,8v.1c0,5.3-2.9,8.3-6.4,10.2,5.6,2.1,9.1,5.3,9.1,11.6v.1c0,8.6-7.2,13-18.2,13H123.8v-47.2Zm20.3,19.1c4.7,0,7.7-1.5,7.7-5v-.1c0-3.1-2.5-4.9-7-4.9H134.4v10Zm2.8,19c4.7,0,7.6-1.6,7.6-5.1v-.1c0-3.2-2.4-5.1-7.9-5.1H134.4v10.4H147Z"/><path class="cls-1" d="M40.6,274h0a8.44,8.44,0,0,1,8.8-8.5A8.56,8.56,0,0,1,56,268l-2.4,2.6a6.41,6.41,0,0,0-4.3-1.8,5,5,0,0,0-4.9,5.1h0a4.89,4.89,0,0,0,4.9,5.1,6,6,0,0,0,4.4-1.9l2.4,2.3a8.58,8.58,0,0,1-6.9,2.9A8.23,8.23,0,0,1,40.6,274Z"/><path class="cls-1" d="M59.1,265.65h3.7v6.5h6.8v-6.5h3.7v16.4H69.6v-6.6H62.8v6.6H59.1Z"/><path class="cls-1" d="M83.1,265.55h3.4l7.2,16.5H89.8l-1.5-3.7H81.2l-1.5,3.7H75.9Zm3.9,9.7L84.8,270l-2.2,5.3Z"/><path class="cls-1" d="M96.3,265.65H104a6.77,6.77,0,0,1,4.9,1.7,5.14,5.14,0,0,1,1.4,3.7h0a5.23,5.23,0,0,1-3.6,5.1l4.1,5.8h-4.3l-3.6-5.2H100V282H96.3Zm7.4,8c1.8,0,2.8-.9,2.8-2.3h0c0-1.5-1.1-2.3-2.9-2.3H99.9v4.7h3.8Z"/><path class="cls-1" d="M113.8,265.65h3.7v16.4h-3.7Z"/><path class="cls-1" d="M125.6,269.05h-5.1v-3.3h13.9v3.3h-5.1v13h-3.7v-13Z"/><path class="cls-1" d="M142,275.65l-6.5-9.9h4.3l4,6.6,4.1-6.6h4.2l-6.5,9.8v6.5h-3.7v-6.4Z"/><path class="cls-2" d="M165.3,222.65a2.5,2.5,0,0,0,1.3.4c.7,0,1.2-.4,1.2-1s-.3-.8-1.1-1.1-1.5-.8-1.5-1.6.7-1.5,1.8-1.5a1.74,1.74,0,0,1,1.2.3l-.2.6a2.07,2.07,0,0,0-1.1-.3c-.8,0-1.1.5-1.1.8,0,.5.3.8,1.1,1.1s1.4.8,1.4,1.6-.6,1.6-1.9,1.6a2.89,2.89,0,0,1-1.4-.4Z"/><path class="cls-2" d="M174.2,221.05c0-.8-.1-1.7-.1-2.4h0c-.2.6-.4,1.4-.7,2.1l-1,2.7h-.5l-.9-2.7a10.41,10.41,0,0,1-.6-2.2h0c0,.7-.1,1.6-.1,2.5l-.2,2.4h-.7l.4-5.6h.9l1,2.7c.2.7.4,1.3.6,1.9h0a8.24,8.24,0,0,1,.6-1.9l1-2.7h.9l.3,5.6h-.7Z"/></svg>