<svg id="Layer_1" data-name="Layer 1" xmlns="http://www.w3.org/2000/svg" xmlns:xlink="http://www.w3.org/1999/xlink" viewBox="0 0 324 172.8"><defs><style>.cls-1,.cls-12,.cls-13,.cls-6,.cls-7{fill:none;}.cls-1,.cls-11,.cls-12{stroke:#349acd;}.cls-1,.cls-10,.cls-11{stroke-miterlimit:3.86;}.cls-2{clip-path:url(#clip-path);}.cls-3{fill:#35689a;}.cls-4{fill:#fff;}.cls-5{fill:#f9e961;}.cls-6{stroke:#fff;}.cls-10,.cls-13,.cls-7{stroke:#009a66;}.cls-10,.cls-8{fill:#009a66;}.cls-11,.cls-9{fill:#349acd;}.cls-12,.cls-13{stroke-width:0.75px;}</style><clipPath id="clip-path"><polyline class="cls-1" points="4.6 168.28 4.6 4.53 319.4 4.53 319.4 168.28"/></clipPath></defs><g class="cls-2"><polyline class="cls-3" points="4.6 168.03 4.6 4.53 319.4 4.53 319.4 168.03"/><polygon class="cls-4" points="110.45 146.54 109.12 146.56 107.85 146.56 107.28 146.56 106.95 146.56 106.95 126.88 116.93 126.88 116.93 129.63 110.45 129.63 110.45 134.79 116.93 134.79 116.93 137.54 110.45 137.54 110.45 146.54 110.45 146.54"/><path class="cls-4" d="M119,137.62a9.36,9.36,0,0,1,1.13-5.09c.73-1.16,2.29-1.74,4.64-1.74s3.92.58,4.63,1.72a9.81,9.81,0,0,1,1.06,5.11V140c0,2.81-.48,4.66-1.44,5.53a6.16,6.16,0,0,1-4.25,1.3c-2.33,0-3.85-.58-4.62-1.77A9.55,9.55,0,0,1,119,140v-2.33Zm8-.41v-.78a4.25,4.25,0,0,0-.42-2.14c-.22-.5-.83-.75-1.81-.75a1.86,1.86,0,0,0-1.79.85,5.28,5.28,0,0,0-.42,2.25v4.56a4.7,4.7,0,0,0,.38,2.11c.23.5.85.75,1.81.75s1.69-.3,1.92-.95a8.48,8.48,0,0,0,.33-2.74v-3.16Z"/><path class="cls-4" d="M135.31,131.11v10.2a6.39,6.39,0,0,0,.18,1.65,1.32,1.32,0,0,0,.71.93,2.44,2.44,0,0,0,1.13.25,3,3,0,0,0,1.29-.27,1.42,1.42,0,0,0,.77-1.14,9.18,9.18,0,0,0,.19-1.84v-9.78H143v15.42h-3.41v-1.22a3,3,0,0,1-1.42,1.08,5.25,5.25,0,0,1-2,.39,5.62,5.62,0,0,1-2.54-.64,3.16,3.16,0,0,1-1.54-1.77,10,10,0,0,1-.21-1.19,11.27,11.27,0,0,1-.08-1.4V131.11Z"/><path class="cls-4" d="M150.51,146.53H147V131.11h3.34l-.07,1.42a2.05,2.05,0,0,1,.69-1.16,4.33,4.33,0,0,1,1.86-.26h1.77v2.59h-4.09v12.83Z"/><path class="cls-4" d="M176.68,132.81h-3.5a4.63,4.63,0,0,0-.08-.92,4.41,4.41,0,0,0-.34-.88,2.42,2.42,0,0,0-1.25-1.25,5,5,0,0,0-.79-.31,1.92,1.92,0,0,0-.69-.09,2.45,2.45,0,0,0-2.06,1.12,2.25,2.25,0,0,0-.31,1.14,2.32,2.32,0,0,0,.67,1.66,9.21,9.21,0,0,0,2.31,1.48l1.19.63a18.49,18.49,0,0,1,4.25,2.92,4.91,4.91,0,0,1,1.12,3.47,5,5,0,0,1-.77,2.48,4.78,4.78,0,0,1-2.33,1.88,9,9,0,0,1-3.42.64,10.51,10.51,0,0,1-2.17-.22,9.19,9.19,0,0,1-2.37-.88,4.17,4.17,0,0,1-2-2.25,8.34,8.34,0,0,1-.67-3.39H167a5.63,5.63,0,0,0,.11,1c.08.35.16.75.29,1.17a2.29,2.29,0,0,0,1.29,1.52,4.4,4.4,0,0,0,1.92.44,3.27,3.27,0,0,0,1.52-.33,2.28,2.28,0,0,0,1-.88,2.33,2.33,0,0,0,.37-1.25,2.13,2.13,0,0,0-.68-1.82c-.46-.33-1.34-.85-2.63-1.58l-1.25-.72a15.74,15.74,0,0,1-4-2.75,4.86,4.86,0,0,1-1-3.3,4.51,4.51,0,0,1,.77-2.42,5.13,5.13,0,0,1,2.32-1.86,7.66,7.66,0,0,1,3.1-.69,7.28,7.28,0,0,1,3.25.75,5.53,5.53,0,0,1,2.4,2.39,6.59,6.59,0,0,1,.85,3.13Z"/><path class="cls-4" d="M180.6,128.26h3.5v2.85h2.66v2.59H184.1V142a7.48,7.48,0,0,0,.31,2.42,8,8,0,0,0,1.4,2.1H182a8.46,8.46,0,0,1-1.14-1.92,7.29,7.29,0,0,1-.21-.91,7.13,7.13,0,0,1-.08-1.16V133.7h-2v-2.59h2v-2.85Z"/><path class="cls-4" d="M200.51,146.53h-3.16l-.21-.67-.21-1a6.07,6.07,0,0,1-1.42,1.47,3.59,3.59,0,0,1-1.91.44,8.4,8.4,0,0,1-2.07-.24,3.56,3.56,0,0,1-1.6-.95,4.11,4.11,0,0,1-1-1.55,5.1,5.1,0,0,1-.27-1.73,6,6,0,0,1,.29-1.85,3,3,0,0,1,1.34-1.67,10.38,10.38,0,0,1,1.12-.65c.44-.19.92-.41,1.46-.61l2.6-1.08c.67-.34,1-.75,1-1.25a2.25,2.25,0,0,0-.16-.89,1.63,1.63,0,0,0-.71-.61,2.53,2.53,0,0,0-1.21-.31,4.85,4.85,0,0,0-.92.15,1.86,1.86,0,0,0-1,.72,2.57,2.57,0,0,0-.46,1.61h-3.14a8.74,8.74,0,0,1,1-3.19,2.92,2.92,0,0,1,1.56-1.29,4,4,0,0,1,.81-.21,8.29,8.29,0,0,1,.94-.2l1.71-.11a12.79,12.79,0,0,1,1.81.14,5.09,5.09,0,0,1,1.73.67,3,3,0,0,1,1.27,1.8,10.53,10.53,0,0,1,.37,3v7.46a5.76,5.76,0,0,0,.5,2.64Zm-5.08-7.5a13.61,13.61,0,0,0-2.6,1.73,1.74,1.74,0,0,0-.57,1.3v.23a2.32,2.32,0,0,0,.21,1,1.91,1.91,0,0,0,.69.62,2.57,2.57,0,0,0,1,.21,3.19,3.19,0,0,0,1.19-.28,1.74,1.74,0,0,0,.89-1.16,7.91,7.91,0,0,0,.21-1.94v-2.39l-1.06.66Z"/><path class="cls-4" d="M205.51,146.53H202V131.11h3.34l-.07,1.42a2.05,2.05,0,0,1,.69-1.16,4.33,4.33,0,0,1,1.86-.26h1.77v2.59h-4.09v12.83Z"/><path class="cls-4" d="M232.39,133.14h-3.52a17,17,0,0,0-.38-2.44,1.59,1.59,0,0,0-1.06-1,4.37,4.37,0,0,0-1.73-.34,3.89,3.89,0,0,0-1.81.37,2.1,2.1,0,0,0-1,1.22,6,6,0,0,0-.27,1.83v7.33a10.92,10.92,0,0,0,.18,2.09,2,2,0,0,0,1.07,1.34,4.35,4.35,0,0,0,2.08.49h.54l.61-.14a2.11,2.11,0,0,0,1.6-1.44,9,9,0,0,0,.19-1.67v-1.25h3.52v.83a10.77,10.77,0,0,1-.13,1.78,6.55,6.55,0,0,1-.39,1.54,3.57,3.57,0,0,1-1.77,2,9,9,0,0,1-2.29.9,9.05,9.05,0,0,1-2.09.24,8.35,8.35,0,0,1-3.52-.66,5.35,5.35,0,0,1-2.27-1.86,6.36,6.36,0,0,1-.83-3.58v-7.56a11.9,11.9,0,0,1,.35-3.31,3.45,3.45,0,0,1,1.69-2,8.83,8.83,0,0,1,2.42-1,13.07,13.07,0,0,1,2.31-.2,11.21,11.21,0,0,1,1.44.07,8.27,8.27,0,0,1,1.37.27,6.26,6.26,0,0,1,2.48,1.25,2.84,2.84,0,0,1,1.1,2.28l.13,1.08v1.58Z"/><path class="cls-4" d="M241.89,146.53v-10.6c0-.22,0-.45,0-.7a4.3,4.3,0,0,0-.11-.86,1,1,0,0,0-.7-.76,3.7,3.7,0,0,0-1.13-.25,2.69,2.69,0,0,0-1.15.26,1.85,1.85,0,0,0-.83,1.08,8.87,8.87,0,0,0-.17,1.75v10.08h-3.52V126.81h3.52v5.55a4,4,0,0,1,1.19-1.1,4.13,4.13,0,0,1,1.09-.37l1.12-.1h.65a5.47,5.47,0,0,0,.68.14,6.92,6.92,0,0,1,1.23.36,2.19,2.19,0,0,1,1.27,1.32,6.92,6.92,0,0,1,.4,2.42v11.48l-3.52,0Z"/><path class="cls-4" d="M260.51,146.53h-3.16l-.21-.67-.21-1a6.07,6.07,0,0,1-1.42,1.47,3.59,3.59,0,0,1-1.91.44,8.4,8.4,0,0,1-2.07-.24,3.56,3.56,0,0,1-1.6-.95,4.11,4.11,0,0,1-1-1.55,5.1,5.1,0,0,1-.27-1.73,6,6,0,0,1,.29-1.85,3,3,0,0,1,1.34-1.67,10.38,10.38,0,0,1,1.12-.65c.44-.19.92-.41,1.46-.61l2.6-1.08c.67-.34,1-.75,1-1.25a2.25,2.25,0,0,0-.16-.89,1.63,1.63,0,0,0-.71-.61,2.53,2.53,0,0,0-1.21-.31,4.85,4.85,0,0,0-.92.15,1.86,1.86,0,0,0-1,.72,2.57,2.57,0,0,0-.46,1.61h-3.14a8.74,8.74,0,0,1,1-3.19,2.92,2.92,0,0,1,1.56-1.29,4,4,0,0,1,.81-.21,8.29,8.29,0,0,1,.94-.2l1.71-.11a12.79,12.79,0,0,1,1.81.14,5.09,5.09,0,0,1,1.73.67,3,3,0,0,1,1.27,1.8,10.53,10.53,0,0,1,.37,3v7.46a5.76,5.76,0,0,0,.5,2.64Zm-5.08-7.5a13.61,13.61,0,0,0-2.6,1.73,1.74,1.74,0,0,0-.57,1.3v.23a2.32,2.32,0,0,0,.21,1,1.91,1.91,0,0,0,.69.62,2.57,2.57,0,0,0,1,.21,3.19,3.19,0,0,0,1.19-.28,1.74,1.74,0,0,0,.89-1.16,7.91,7.91,0,0,0,.21-1.94v-2.39l-1.06.66Z"/><path class="cls-4" d="M265.51,146.53H262V131.11h3.34l-.07,1.42a2.05,2.05,0,0,1,.69-1.16,4.33,4.33,0,0,1,1.86-.26h1.77v2.59h-4.09v12.83Z"/><path class="cls-4" d="M271.81,131.11h3.5v15.42h-3.5V131.11Zm1.79-4.55a2.26,2.26,0,0,1,1.48.5,1.47,1.47,0,0,1,.62,1.22,1.61,1.61,0,0,1-.56,1.25,2.12,2.12,0,0,1-1.48.5,2.31,2.31,0,0,1-1.52-.49,1.48,1.48,0,0,1-.61-1.23,1.5,1.5,0,0,1,.61-1.2,2.11,2.11,0,0,1,1.46-.55Z"/><path class="cls-4" d="M280.6,128.26h3.5v2.85h2.66v2.59H284.1V142a7.48,7.48,0,0,0,.31,2.42,8,8,0,0,0,1.4,2.1H282a8.46,8.46,0,0,1-1.14-1.92,7.29,7.29,0,0,1-.21-.91,7.13,7.13,0,0,1-.08-1.16V133.7h-2v-2.59h2v-2.85Z"/><path class="cls-4" d="M291.78,131.11l2.38,9.75,2.4-9.75H300L295.66,147c-.48,1.75-1.21,2.81-2.19,3.23a12.86,12.86,0,0,1-4.62.6v-2.53h.75l1.29-.08a1.51,1.51,0,0,0,.94-.39,1.35,1.35,0,0,0,.48-1.13,3.68,3.68,0,0,0-.15-.9l-.23-.85-3.69-13.82Z"/><polygon class="cls-5" points="176.14 100.23 165.85 107.81 169.76 120.03 159.41 112.44 149.03 120.03 153.03 107.81 142.68 100.23 155.49 100.23 159.41 88.03 163.41 100.23 176.14 100.23 176.14 100.23"/><polygon class="cls-5" points="217.95 100.23 207.58 107.81 211.58 120.03 201.22 112.44 190.87 120.03 194.85 107.81 184.49 100.23 197.31 100.23 201.22 88.03 205.14 100.23 217.95 100.23 217.95 100.23"/><polygon class="cls-5" points="261.1 100.23 250.72 107.81 254.66 120.03 244.37 112.44 233.99 120.03 237.93 107.81 227.64 100.23 240.37 100.23 244.37 88.03 248.28 100.23 261.1 100.23 261.1 100.23"/><polygon class="cls-5" points="302.68 100.23 292.39 107.81 296.33 120.03 285.95 112.44 275.66 120.03 279.6 107.81 269.22 100.23 282.03 100.23 285.95 88.03 289.95 100.23 302.68 100.23 302.68 100.23"/><path class="cls-4" d="M196,29.12h-4.37a24.11,24.11,0,0,0-.46-3.18,2.18,2.18,0,0,0-1.31-1.32,5.77,5.77,0,0,0-2.17-.42,4.49,4.49,0,0,0-2.27.5,2.64,2.64,0,0,0-1.27,1.56,8.49,8.49,0,0,0-.33,2.4V38.2a15.11,15.11,0,0,0,.22,2.68,2.49,2.49,0,0,0,1.34,1.76,5.07,5.07,0,0,0,2.58.64h.69l.75-.18a2.59,2.59,0,0,0,2-1.88,12.63,12.63,0,0,0,.25-2.18V37.42H196v1.09a16.82,16.82,0,0,1-.14,2.32,11,11,0,0,1-.48,2,4.7,4.7,0,0,1-2.21,2.57,10.34,10.34,0,0,1-5.46,1.47,10.35,10.35,0,0,1-4.39-.84,6.73,6.73,0,0,1-2.82-2.45,8.32,8.32,0,0,1-1.06-4.64V29.1a16,16,0,0,1,.46-4.29A4.37,4.37,0,0,1,182,22.22a9.71,9.71,0,0,1,3-1.3,13.44,13.44,0,0,1,2.9-.3,12.59,12.59,0,0,1,1.77.1,7.88,7.88,0,0,1,1.73.37,7.2,7.2,0,0,1,3.08,1.63,3.71,3.71,0,0,1,1.38,2.92l.14,1.45v2Z"/><polygon class="cls-4" points="199.81 20.93 204.18 20.93 204.18 31.02 211.51 31.02 211.51 20.93 215.89 20.93 215.89 46.52 211.51 46.52 211.51 34.81 204.18 34.81 204.18 46.52 199.81 46.52 199.81 20.93 199.81 20.93"/><path class="cls-4" d="M223.58,20.92h7l5.46,25.61h-4.61L230,40.16h-5.68l-1.23,6.37h-4.52l5-25.61Zm1.33,15.67h4.44L227,24.81l-2.08,11.78Z"/><path class="cls-4" d="M245.18,36.12h-3.56V46.53h-4.38V20.92h5.19a26.83,26.83,0,0,1,5.79.51,4.91,4.91,0,0,1,3.25,2.05,9.92,9.92,0,0,1,.81,1.37,7.93,7.93,0,0,1,.48,1.32c.11.43.19.84.25,1.2a10.14,10.14,0,0,1,.07,1.29,8.6,8.6,0,0,1-.32,2.32,5.21,5.21,0,0,1-.83,1.77l-.83,1a3.14,3.14,0,0,1-.71.63A5.81,5.81,0,0,1,252.22,37a12.85,12.85,0,0,1,.46,3.75V43.6a10.63,10.63,0,0,0,.4,2.93h-4.82l-.18-1.27a8.35,8.35,0,0,1-.11-1.41L247.85,41a9.15,9.15,0,0,0-.57-3.43,2.08,2.08,0,0,0-2.1-1.42Zm-3.56-3.81h3.64a3,3,0,0,0,1.55-.34A3.65,3.65,0,0,0,248,30.6a3.39,3.39,0,0,0,.48-1.94,4.14,4.14,0,0,0-.66-2.54,3.69,3.69,0,0,0-2.09-1.25c-.39-.07-.87-.15-1.39-.21a11.23,11.23,0,0,0-1.48-.11h-1.27v7.76Z"/><polygon class="cls-4" points="261.49 46.52 257.12 46.52 257.12 20.93 261.49 20.93 261.49 46.52 261.49 46.52"/><polygon class="cls-4" points="263.53 24.63 263.53 20.98 278.72 20.98 278.72 24.63 273.41 24.63 273.41 46.59 269.03 46.59 269.03 24.63 263.53 24.63 263.53 24.63"/><polygon class="cls-4" points="281.08 20.93 285.93 20.93 290.2 31.68 294.45 20.93 299.28 20.93 292.37 37.47 292.37 46.52 287.99 46.52 287.99 37.47 281.08 20.93 281.08 20.93"/><polygon class="cls-4" points="168.18 61.77 168.18 79.03 164.37 79.03 164.37 53.42 168.76 53.42 175.45 70.61 175.45 53.42 179.26 53.42 179.26 79.03 174.93 79.03 168.18 61.77 168.18 61.77"/><path class="cls-4" d="M185.31,53.43h6.12L196.18,79h-4l-1.27-6.38H186L184.89,79H181l4.36-25.59Zm1.16,15.65h3.86l-2.05-11.76-1.81,11.76Z"/><polygon class="cls-4" points="195.93 53.42 200.12 53.42 203.89 73.23 207.53 53.42 211.62 53.42 206.68 79.03 201.2 79.03 195.93 53.42 195.93 53.42"/><polygon class="cls-4" points="218.18 79.03 214.37 79.03 214.37 53.42 218.18 53.42 218.18 79.03 218.18 79.03"/><path class="cls-4" d="M232.43,68.51h-3.56V64.93H236V79.07L233,76.65a5.69,5.69,0,0,1-1.39,1.68,3.56,3.56,0,0,1-1.86.89l-1.29.13a5.38,5.38,0,0,1-1.66-.22,11.43,11.43,0,0,1-2.13-1,4.77,4.77,0,0,1-2.15-2.55,11.72,11.72,0,0,1-.68-4.19V61.58a19.28,19.28,0,0,1,.37-4.26A4.39,4.39,0,0,1,224,54.76a8.1,8.1,0,0,1,2.69-1.33,11.57,11.57,0,0,1,1.25-.23,6.9,6.9,0,0,1,1.25-.11,11.3,11.3,0,0,1,3.67.78,4.09,4.09,0,0,1,2.73,2.81c.2.67.35,1.27.45,1.71a6.86,6.86,0,0,1,.15,1.08l.06,2.15h-3.81a12,12,0,0,0-.29-2.83,2.24,2.24,0,0,0-1.23-1.59,4,4,0,0,0-1.88-.46,3.58,3.58,0,0,0-2,.49,2.66,2.66,0,0,0-1.11,1.6,9.1,9.1,0,0,0-.31,2.48v9.41a13.68,13.68,0,0,0,.21,2.7A2.64,2.64,0,0,0,227,75.16a4.13,4.13,0,0,0,2.21.62,5.09,5.09,0,0,0,1.73-.43,2,2,0,0,0,1.25-1.67,13.08,13.08,0,0,0,.21-2.21v-3Z"/><path class="cls-4" d="M242.81,53.43h6.12L253.68,79h-4l-1.27-6.38h-4.94L242.39,79h-3.94l4.36-25.59ZM244,69.08h3.86l-2.05-11.76L244,69.08Z"/><polygon class="cls-4" points="253.43 57.13 253.43 53.48 266.62 53.48 266.62 57.13 262.01 57.13 262.01 79.08 258.2 79.08 258.2 57.13 253.43 57.13 253.43 57.13"/><path class="cls-4" d="M281.24,70.3a12.92,12.92,0,0,1-1.46,6.64c-.95,1.61-2.87,2.41-5.72,2.41s-4.84-.8-5.8-2.42a13.22,13.22,0,0,1-1.41-6.63V62.1c0-3.59.62-6,1.89-7.2a7.39,7.39,0,0,1,5.32-1.81c2.83,0,4.75.78,5.7,2.36a12.56,12.56,0,0,1,1.48,6.65v8.2ZM277.43,61a5.85,5.85,0,0,0-.71-3.25,3,3,0,0,0-2.69-1,3,3,0,0,0-2.68,1,5.71,5.71,0,0,0-.71,3.25V71.43a6.31,6.31,0,0,0,.69,3.25,3.89,3.89,0,0,0,5.35-.05,5.69,5.69,0,0,0,.75-3.2V61Z"/><path class="cls-4" d="M291.37,68.63h-3.11V79h-3.79V53.43H289a20.47,20.47,0,0,1,5,.49A4.32,4.32,0,0,1,296.85,56a12,12,0,0,1,.71,1.36,9.55,9.55,0,0,1,.41,1.33,8.31,8.31,0,0,1,.21,1.19,12.3,12.3,0,0,1,.06,1.27,9.63,9.63,0,0,1-.27,2.35,6,6,0,0,1-.73,1.77l-.71,1a4.87,4.87,0,0,1-.62.65,5.75,5.75,0,0,1,1.58,2.56,13.85,13.85,0,0,1,.4,3.75V76.1a12.28,12.28,0,0,0,.35,2.92h-4.18c-.05-.3-.11-.73-.17-1.27a12.31,12.31,0,0,1-.08-1.4l-.11-2.88a10.44,10.44,0,0,0-.5-3.43,1.8,1.8,0,0,0-1.83-1.41Zm-3.11-3.81h3.19a2.3,2.3,0,0,0,1.33-.35,3.44,3.44,0,0,0,1.09-1.37,4.13,4.13,0,0,0,.41-2,4.57,4.57,0,0,0-.58-2.52,3.08,3.08,0,0,0-1.83-1.24,9.48,9.48,0,0,0-1.19-.22,7.69,7.69,0,0,0-1.31-.12h-1.11v7.78Z"/><line class="cls-6" x1="-101.14" y1="27.49" x2="162.81" y2="27.49"/><line class="cls-6" x1="31.02" y1="-104.73" x2="31.02" y2="159.21"/><path class="cls-7" d="M119.66,27.41A88.59,88.59,0,1,1,31.07-61.17,88.58,88.58,0,0,1,119.66,27.41Z"/><path class="cls-6" d="M116.14,27.41A85.07,85.07,0,1,1,31.07-57.65,85.07,85.07,0,0,1,116.14,27.41Z"/><polygon class="cls-4" points="31.03 -61.02 43.75 -2.96 31.08 27.43 31.03 -61.02"/><polygon class="cls-8" points="31.08 27.43 18.51 -3.11 31.03 -61.02 31.08 27.43"/><polygon class="cls-4" points="93.72 -35.03 61.55 14.96 31.08 27.43 93.72 -35.03"/><polygon class="cls-9" points="31.08 27.43 43.85 -3.04 93.72 -35.03 31.08 27.43"/><polygon class="cls-4" points="119.54 27.54 61.45 40.15 31.08 27.43 119.54 27.54"/><polygon class="cls-10" points="31.08 27.43 61.65 14.91 119.54 27.54 31.08 27.43"/><polygon class="cls-4" points="93.55 90.06 43.56 57.9 31.08 27.43 93.55 90.06"/><polygon class="cls-9" points="31.08 27.43 61.55 40.2 93.55 90.06 31.08 27.43"/><polygon class="cls-4" points="30.99 115.89 18.37 57.8 31.08 27.43 30.99 115.89"/><polygon class="cls-8" points="31.08 27.43 43.61 58 30.99 115.89 31.08 27.43"/><polygon class="cls-4" points="-31.93 89.91 0.63 39.95 31.08 27.43 -31.93 89.91"/><polygon class="cls-11" points="31.08 27.43 18.36 57.92 -31.93 89.91 31.08 27.43"/><polygon class="cls-10" points="31.08 27.43 0.51 39.95 -57.37 27.33 31.08 27.43"/><polygon class="cls-4" points="-32.71 -35.3 17.3 -3.16 29.79 27.3 -32.71 -35.3"/><polygon class="cls-4" points="-57.37 27.33 0.71 14.71 31.08 27.43 -57.37 27.33"/><polygon class="cls-9" points="30.12 26.52 -0.35 13.77 -32.27 -34.87 30.12 26.52"/><polygon class="cls-12" points="94.05 -35.71 61.71 14.07 32.24 26.19 44.36 -2.91 94.05 -35.71"/><polygon class="cls-13" points="31.02 -61.04 43.32 -3.43 31.01 25.8 18.78 -3.28 31.02 -61.04"/><polygon class="cls-12" points="-32.6 -35.31 17.52 -2.76 29.85 26.3 0.47 14.21 -32.6 -35.31"/><polygon class="cls-13" points="-57.38 27.49 0.02 15.47 29.29 27.41 0.32 39.65 -57.38 27.49"/><polygon class="cls-12" points="-32.15 90.36 0.76 40.91 29.79 28.58 17.74 58.03 -32.15 90.36"/><polygon class="cls-13" points="30.91 115.87 18.93 58.4 31.01 29.08 43.17 58.48 30.91 115.87"/><polygon class="cls-12" points="94.18 90.58 44.44 57.96 32.35 28.8 61.71 40.91 94.18 90.58"/><polygon class="cls-13" points="119.52 27.49 62.08 39.65 32.57 27.47 62.15 15.33 119.52 27.49"/></g><polyline class="cls-1" points="4.6 168.28 4.6 4.53 319.4 4.53 319.4 168.28"/></svg>