<svg xmlns="http://www.w3.org/2000/svg" width="150" height="150"><switch><g><path fill="#FCA466" stroke="#FB6B21" stroke-width="1.599936" stroke-linecap="round" stroke-linejoin="round" stroke-miterlimit="10" d="M36.614 22.155L135.05 9.117l13.038 98.436-98.436 13.038z"/><path fill="#FCA466" stroke="#FB6B21" stroke-width="1.599936" stroke-linecap="round" stroke-linejoin="round" stroke-miterlimit="10" d="M36.614 22.155L135.05 9.117l13.038 98.436-98.436 13.038z"/><path fill="#FDDFCA" stroke="#FB6B21" stroke-width="1.6" stroke-linecap="round" stroke-linejoin="round" stroke-miterlimit="10" d="M42.7 15.2H142v99.3H42.7z"/><path fill="#FB6B21" d="M106.7 103.6c-18.6-9.3-32.4-.5-43.8-2.5-11.4-2-8-25.5 0-53.3 3.7-12.8 4.7-24.1 4.7-32.6H42.7v99.3h79.8c-2.4-2.8-7-6.5-15.8-10.9z" opacity=".24"/><path fill="none" stroke="#FB6B21" stroke-width="1.6" stroke-linecap="round" stroke-linejoin="round" stroke-miterlimit="10" d="M42.7 15.2H142v99.3H42.7z"/><g><path fill="#FFF" stroke="#FB6B21" stroke-width="1.6" stroke-linecap="round" stroke-linejoin="round" stroke-miterlimit="10" d="M90.8 92.7s-24.7 0-34.1 21.8h66.1c-8.5-20.5-32-21.8-32-21.8zM73.4 111s-2.1 2.1-2.7 3.4M107.7 111s1.8 1.6 3 3.4M106.5 74.4l7.7.5c2.2.1 4.1-1.5 4.2-3.7v-.7c.1-2.2-1.5-4.1-3.7-4.2l-7.7-.5-.5 8.6z"/><path fill="#FDDFCA" stroke="#FB6B21" stroke-width="1.6" stroke-linecap="round" stroke-linejoin="round" stroke-miterlimit="10" d="M77.2 64.9l-7.7-.5c-2.2-.1-4.1 1.5-4.2 3.7v.7c-.1 2.2 1.6 4.1 3.7 4.2l7.7.5.5-8.6z"/><path fill="#FFF" stroke="#FB6B21" stroke-width="1.6" stroke-linecap="round" stroke-linejoin="round" stroke-miterlimit="10" d="M85.8 84.9l-.6 9.8c-.2 2.8 2 5.2 4.8 5.4l.9.1c2.8.2 5.2-2 5.4-4.8l.6-9.8-11.1-.7z"/><path fill="#FFF" stroke="#FB6B21" stroke-width="1.6" stroke-linecap="round" stroke-linejoin="round" stroke-miterlimit="10" d="M114.3 43.2s-1.2 19.2-1.7 27.5-7.4 21.7-22.3 20.8c-12.5-.8-19.2-13.1-19.3-22-.2-8.9 2.9-28.1 2.9-28.1"/><path fill="#FB6B21" d="M66 40.1c1.4-2.3 3.7-3 6.8-2.1-.6-3.3.3-5.5 2.6-6.5 2.4-1.1 4.7-.9 7 .4.5-4 2.4-6.3 5.6-6.8 3.2-.5 6.1.6 8.7 3.3 1.5-1.1 3.5-1.3 6.1-.6 2.6.7 4 2.2 4.3 4.5 3.3.8 5.7 1.8 7.4 3 1.6 1.3 2 3.4 1 6.3 2.7-.3 4.4.9 5 3.8.6 2.9 0 5.5-1.8 7.8 1.1 2.3 1.5 4.1 1.2 5.5-.4 1.4-2.7 4.3-6.9 8.7l.7-13.3c-2.1-.7-3.8-1.4-5.1-2.3-1.3-.9-2-2.1-2.1-3.7-2.1.4-4 .3-5.7-.3-1.7-.6-3.3-2.2-4.6-4.7-.8 2-2.6 3.2-5.6 3.7-2.9.5-5.6-.3-8.1-2.3.3 1.3-.5 2.9-2.4 4.6-1.9 1.7-4.5 2.7-7.7 2.8l-.7 12.6c-2.4-1.2-3.9-2.5-4.5-4-.6-1.4-.2-2.7 1.1-3.9-1.7-1.1-2.6-2.4-2.7-3.8-.1-1.5.3-3.2 1.3-5-2.2-2.9-2.4-5.4-.9-7.7z"/><path fill="#F7E1CB" stroke="#FB6B21" stroke-width="1.6" stroke-linecap="round" stroke-linejoin="round" stroke-miterlimit="10" d="M104.5 62.8s-2.5-1.9-6-1.3M85.5 60.7s-3.4-.9-6.1.8"/><path fill="#EF6A24" d="M96.8 85.6v.2l-.3-.2z"/><path fill="#EF6A24" d="M114.3 43.2s-.1 1-.2 2.7l-1.9-2.8 2.1.1z" opacity=".1"/><path fill="#FFF" stroke="#FB6B21" stroke-width="1.6" stroke-linecap="round" stroke-linejoin="round" stroke-miterlimit="10" d="M82.8 79.2l16.1 1.9s-2.3 4.8-8.6 4.1c-6.4-.8-7.5-6-7.5-6zM81.4 70.4c.4-1.2 1.6-2 3-2 1.3 0 2.4.7 2.9 1.7M102.5 72.3c-.2-1.2-1.3-2.2-2.7-2.4-1.3-.2-2.5.4-3.1 1.3"/><path fill="#FB6B21" d="M82.5 99.3c2.9 3.6 8.5 4.1 7.9.8-.6-3.3-.1-8.6-.1-8.6s3.4-.8-3.1-3.1-7.7-8.9-8.5-14.8c-.8-5.8 2.5-11.8 1.9-14.8-.5-3-2.5-8.7 5.4-9.5s9.8-6.5 9.8-6.5c-4.5 1.9-4.1-3.7-4.1-3.7s-2.1 1-6.5-.7-2.9-6.8-2.9-6.8c-2.3-1.3-4.6-1.4-7-.4-2.4 1.1-3.2 3.2-2.6 6.5-3.1-.9-5.4-.2-6.8 2.1-1.4 2.3-1.2 4.9.6 7.6-1 1.9-1.4 3.5-1.3 5 .1 1.5 1 2.8 2.7 3.8-1.3 1.2-1.7 2.5-1.1 3.9.6 1.4 2 2.6 4.2 3.8v.3l-1.2-.1c-2.4-.2-4.4 1.6-4.6 4-.2 2.4 1.6 4.4 4 4.6l2 .1c1.3 7 6.1 14.8 14.1 17.4l-.1 1.9c-2.5.4-2.5 1-6.1 1.9.6 1.8.5 1.7 3.4 5.3z" opacity=".24"/></g><g><path fill="#FFF" d="M71.1 132l-41.8 8.2c-.5.1-.9-.2-1-.7L18.1 87.4c-.1-.5.2-.9.7-1l41.8-8.2c.5-.1.9.2 1 .7l10.2 52.2c.1.4-.2.9-.7.9z"/><path fill="none" stroke="#EF7233" stroke-width="1.6" stroke-linecap="round" stroke-linejoin="round" stroke-miterlimit="10" d="M71.1 132l-41.8 8.2c-.5.1-.9-.2-1-.7L18.1 87.4c-.1-.5.2-.9.7-1l41.8-8.2c.5-.1.9.2 1 .7l10.2 52.2c.1.4-.2.9-.7.9z"/><g fill="none" stroke="#EF7233" stroke-width="1.6" stroke-linecap="round" stroke-linejoin="round" stroke-miterlimit="10"><path d="M31.7 117.3l29.1-5.7M33 124.2l29.2-5.7M34.4 131.2l13.4-2.6M30.3 110.3l29.1-5.7"/></g><path fill="none" stroke="#EF7233" stroke-width="1.6" stroke-linecap="round" stroke-linejoin="round" stroke-miterlimit="10" d="M29 103.3l29.1-5.7M27.6 96.3l29.2-5.7"/><path opacity=".24" fill="#EF6A24" d="M69.4 118.8c-1.6-.4-3.2-.5-4.8-.3L51.5 80l-18.3 3.6-5.6 1.1-8.7 1.7c-.5.1-.8.6-.7 1.1l.1.4 10.1 51.6c.1.5.6.8 1.1.7l12.4-2.4 29.3-5.7c.5-.1.8-.6.7-1.1l-2.5-12.2z"/></g><g><path fill="#FFF" d="M60.7 124.6l-40.3 13.7c-.4.1-.9-.1-1.1-.5L2.1 87.5c-.1-.4.1-.9.5-1.1L43 72.7c.4-.1.9.1 1.1.5l17.2 50.3c0 .5-.2.9-.6 1.1z"/><path fill="none" stroke="#EF7233" stroke-width="1.6" stroke-linecap="round" stroke-linejoin="round" stroke-miterlimit="10" d="M60.7 124.6l-40.3 13.7c-.4.1-.9-.1-1.1-.5L2.1 87.5c-.1-.4.1-.9.5-1.1L43 72.7c.4-.1.9.1 1.1.5l17.2 50.3c0 .5-.2.9-.6 1.1z"/><g fill="none" stroke="#EF7233" stroke-width="1.6" stroke-linecap="round" stroke-linejoin="round" stroke-miterlimit="10"><path d="M19.6 115.3l28.1-9.6M21.9 122l28.1-9.6M24.1 128.7l13-4.4M17.3 108.6L45.4 99"/></g><path fill="none" stroke="#EF7233" stroke-width="1.6" stroke-linecap="round" stroke-linejoin="round" stroke-miterlimit="10" d="M15 101.8l28.1-9.6M12.7 95.1l28.1-9.6"/><path fill="#EF6A24" d="M47.6 119.3c-3.7 1.3-7.1 3.7-11 3.8-6.2.2-11.2-5.5-13.2-11.4s-2.1-12.3-4.2-18.2c-1.4-3.9-3.8-7.5-6.9-10.3l-9.7 3.3c-.5.2-.7.7-.6 1.2l17.1 50.2c.2.5.7.7 1.2.6l40.2-13.7c.5-.2.7-.7.6-1.2l-1.4-4.1c-3.9-1.5-8.1-1.6-12.1-.2z" opacity=".24"/></g></g></switch></svg>