<svg viewBox="0 0 192.14 116.59" xmlns="http://www.w3.org/2000/svg"><g fill="#fff"><g fill-rule="evenodd"><path d="M.11 109.16c-.44 1.51 1.28 5.76 3.42 7.42v-3.8a8.07 8.07 0 0 0-2.76-3.82c-.46-.18-.66-.18-.66.2zm6.92 0c.44 1.51-1.28 5.76-3.42 7.42v-3.8a8.07 8.07 0 0 1 2.76-3.82c.36-.18.52-.18.62.2z"/><path d="M7.16 109.16c-.44 1.51 1.29 5.76 3.43 7.42v-3.8a8.07 8.07 0 0 0-2.76-3.82c-.4-.18-.56-.18-.67.2zm6.91 0c.44 1.51-1.29 5.76-3.42 7.42v-3.8a8 8 0 0 1 2.75-3.82c.45-.18.6-.18.71.2zm64.26 0c-.44 1.51 1.28 5.76 3.42 7.42v-3.8a8.07 8.07 0 0 0-2.76-3.82c-.4-.18-.55-.18-.66.2zm6.94 0c.44 1.51-1.28 5.76-3.42 7.42v-3.8a8.07 8.07 0 0 1 2.76-3.82c.4-.18.56-.18.66.2z"/><path d="M85.45 109.16c-.44 1.51 1.28 5.76 3.42 7.42v-3.8a8.08 8.08 0 0 0-2.8-3.82c-.36-.18-.52-.18-.62.2zm6.94 0c.44 1.51-1.28 5.76-3.42 7.42v-3.8a8.07 8.07 0 0 1 2.76-3.82c.38-.18.55-.18.66.2z"/><path d="M92.56 109.16c-.44 1.51 1.29 5.76 3.43 7.42v-3.8a8.07 8.07 0 0 0-2.76-3.82c-.4-.18-.56-.18-.67.2zm7 0c.44 1.51-1.29 5.76-3.43 7.42v-3.8a8.07 8.07 0 0 1 2.76-3.82c.35-.18.51-.18.62.2z"/><path d="M99.68 109.16c-.44 1.51 1.28 5.76 3.42 7.42v-3.8a8.07 8.07 0 0 0-2.76-3.82c-.4-.18-.55-.18-.66.2zm6.94 0c.44 1.51-1.28 5.76-3.42 7.42v-3.8a8.07 8.07 0 0 1 2.76-3.82c.4-.18.56-.18.66.2zm42.88 0c-.44 1.51 1.28 5.76 3.42 7.42v-3.8a8.07 8.07 0 0 0-2.76-3.82c-.4-.18-.56-.18-.66.2zm6.94 0c.44 1.51-1.28 5.76-3.42 7.42v-3.8a8.07 8.07 0 0 1 2.76-3.82c.4-.18.55-.18.66.2z"/><path d="M156.61 109.16c-.44 1.51 1.29 5.76 3.42 7.42v-3.8a8 8 0 0 0-2.75-3.82c-.4-.18-.56-.18-.67.2zm6.95 0c.44 1.51-1.29 5.76-3.43 7.42v-3.8a8.07 8.07 0 0 1 2.76-3.82c.4-.18.56-.18.67.2z"/><path d="M163.73 109.16c-.44 1.51 1.28 5.76 3.42 7.42v-3.8a8.07 8.07 0 0 0-2.76-3.82c-.4-.18-.55-.18-.66.2zm6.94 0c.44 1.51-1.28 5.76-3.42 7.42v-3.8a8.07 8.07 0 0 1 2.76-3.82c.4-.18.56-.18.66.2zm-156.39-5.31c-.44 1.51 1.28 5.76 3.42 7.42v-3.8a8.07 8.07 0 0 0-2.76-3.82c-.4-.21-.55-.17-.66.2zm6.94 0c.44 1.51-1.28 5.76-3.42 7.42v-3.8a8.07 8.07 0 0 1 2.76-3.82c.4-.21.55-.17.66.2zm7.29 0c-.44 1.51 1.29 5.76 3.43 7.42v-3.8a8.07 8.07 0 0 0-2.76-3.82c-.4-.21-.56-.17-.67.2zm7 0c.44 1.51-1.29 5.76-3.42 7.42v-3.8a8 8 0 0 1 2.75-3.82c.36-.21.51-.17.62.2zm35.75 0c-.44 1.51 1.29 5.76 3.43 7.42v-3.8a8.07 8.07 0 0 0-2.76-3.82c-.45-.21-.61-.17-.72.2zm7 0c.44 1.51-1.29 5.76-3.43 7.42v-3.8a8.07 8.07 0 0 1 2.76-3.82c.3-.21.52-.17.57.2zm7.29 0c-.44 1.51 1.28 5.76 3.42 7.42v-3.8a8.07 8.07 0 0 0-2.86-3.82c-.4-.21-.56-.17-.66.2zm6.94 0c.44 1.51-1.28 5.76-3.42 7.42v-3.8a8.07 8.07 0 0 1 2.76-3.82c.28-.21.45-.17.56.2z"/><path d="M92.56 103.85c-.44 1.51 1.29 5.76 3.43 7.42v-3.8a8.07 8.07 0 0 0-2.76-3.82c-.4-.21-.56-.17-.67.2zm7 0c.44 1.51-1.29 5.76-3.43 7.42v-3.8a8.07 8.07 0 0 1 2.76-3.82c.35-.21.51-.17.62.2z"/><path d="M99.68 103.85c-.44 1.51 1.28 5.76 3.42 7.42v-3.8a8.07 8.07 0 0 0-2.76-3.82c-.4-.21-.55-.17-.66.2zm6.94 0c.44 1.51-1.28 5.76-3.42 7.42v-3.8a8.07 8.07 0 0 1 2.76-3.82c.4-.21.56-.17.66.2z"/><path d="M106.8 103.85c-.44 1.51 1.28 5.76 3.42 7.42v-3.8a8.07 8.07 0 0 0-2.76-3.82c-.35-.21-.56-.17-.66.2zm6.94 0c.44 1.51-1.28 5.76-3.42 7.42v-3.8a8.07 8.07 0 0 1 2.76-3.82c.4-.21.55-.17.66.2zm35.76 0c-.44 1.51 1.28 5.76 3.42 7.42v-3.8a8.07 8.07 0 0 0-2.76-3.82c-.4-.21-.56-.17-.66.2zm6.94 0c.44 1.51-1.28 5.76-3.42 7.42v-3.8a8.07 8.07 0 0 1 2.76-3.82c.4-.21.55-.17.66.2z"/><path d="M156.61 103.85c-.44 1.51 1.29 5.76 3.42 7.42v-3.8a8 8 0 0 0-2.75-3.82c-.4-.21-.56-.17-.67.2zm6.95 0c.44 1.51-1.29 5.76-3.43 7.42v-3.8a8.07 8.07 0 0 1 2.76-3.82c.4-.21.56-.17.67.2z"/><path d="M163.73 103.85c-.44 1.51 1.28 5.76 3.42 7.42v-3.8a8.07 8.07 0 0 0-2.76-3.82c-.4-.21-.55-.17-.66.2zm6.94 0c.44 1.51-1.28 5.76-3.42 7.42v-3.8a8.07 8.07 0 0 1 2.76-3.82c.4-.21.56-.17.66.2zM21.4 98.54c-.44 1.51 1.28 5.75 3.42 7.42v-3.81a8.08 8.08 0 0 0-2.71-3.79c-.45-.23-.61-.19-.71.18zm6.94 0c.44 1.51-1.28 5.75-3.42 7.42v-3.81a8 8 0 0 1 2.76-3.79c.43-.23.55-.19.66.18z"/><path d="M28.51 98.54c-.44 1.51 1.29 5.75 3.43 7.42v-3.81a8 8 0 0 0-2.76-3.79c-.4-.23-.56-.19-.67.18zm7 0c.44 1.51-1.29 5.75-3.42 7.42v-3.81a8 8 0 0 1 2.75-3.79c.36-.23.51-.19.62.18zm21.52 0c-.44 1.51 1.28 5.75 3.42 7.42v-3.81a8 8 0 0 0-2.76-3.79c-.45-.23-.58-.19-.71.18zm6.94 0c.44 1.51-1.28 5.75-3.42 7.42v-3.81a8.12 8.12 0 0 1 2.76-3.79c.35-.23.51-.19.61.18z"/><path d="M64.11 98.54c-.44 1.51 1.28 5.75 3.42 7.42v-3.81a8.16 8.16 0 0 0-2.73-3.79c-.44-.23-.6-.19-.69.18zm7 0c.44 1.51-1.28 5.75-3.42 7.42v-3.81a7.93 7.93 0 0 1 2.73-3.79c.36-.23.51-.19.69.18zm28.61 0c-.44 1.51 1.28 5.75 3.42 7.42v-3.81a8 8 0 0 0-2.76-3.81c-.44-.21-.59-.17-.7.2zm6.94 0c.44 1.51-1.28 5.75-3.42 7.42v-3.81a8.09 8.09 0 0 1 2.76-3.81c.36-.21.52-.17.62.2z"/><path d="M106.8 98.54c-.44 1.51 1.28 5.75 3.42 7.42v-3.81a8.09 8.09 0 0 0-2.76-3.81c-.35-.21-.56-.17-.66.2zm6.94 0c.44 1.51-1.28 5.75-3.42 7.42v-3.81a8 8 0 0 1 2.75-3.79c.41-.23.56-.19.67.18z"/><path d="M113.91 98.54c-.44 1.51 1.29 5.75 3.43 7.42v-3.81a8.09 8.09 0 0 0-2.76-3.81c-.4-.21-.47-.17-.67.2zm7 0c.44 1.51-1.29 5.75-3.43 7.42v-3.81a8.23 8.23 0 0 1 2.76-3.81c.35-.21.51-.17.62.2zm28.64 0c-.44 1.51 1.28 5.75 3.42 7.42v-3.81a8.09 8.09 0 0 0-2.76-3.81c-.45-.21-.61-.17-.71.2zm6.94 0c.44 1.51-1.28 5.75-3.42 7.42v-3.81a8 8 0 0 1 2.76-3.81c.35-.21.5-.17.61.2z"/><path d="M156.61 98.54c-.44 1.51 1.29 5.75 3.42 7.42v-3.81a8.07 8.07 0 0 0-2.75-3.81c-.4-.21-.56-.17-.67.2zm6.95 0c.44 1.51-1.29 5.75-3.43 7.42v-3.81a8.09 8.09 0 0 1 2.76-3.81c.4-.21.56-.17.67.2z"/><path d="M163.73 98.54c-.44 1.51 1.28 5.75 3.42 7.42v-3.81a8 8 0 0 0-2.76-3.81c-.4-.21-.55-.17-.66.2zm6.94 0c.44 1.51-1.28 5.75-3.42 7.42v-3.81a8.09 8.09 0 0 1 2.76-3.81c.4-.21.56-.17.66.2zM28.51 93.23c-.44 1.51 1.29 5.75 3.43 7.41v-3.8a8.09 8.09 0 0 0-2.76-3.81c-.4-.25-.56-.17-.67.2zm7 0c.44 1.51-1.29 5.75-3.42 7.41v-3.8a8.14 8.14 0 0 1 2.75-3.81c.36-.25.51-.17.62.2zm14.4 0c-.44 1.51 1.29 5.75 3.43 7.41v-3.8a8.09 8.09 0 0 0-2.76-3.81c-.47-.25-.61-.17-.72.2zm7 0c.44 1.51-1.29 5.75-3.42 7.41v-3.8a8.14 8.14 0 0 1 2.62-3.81c.43-.25.59-.17.7.2z"/><path d="M56.98 93.23c-.44 1.51 1.28 5.75 3.42 7.41v-3.8a8 8 0 0 0-2.76-3.81c-.4-.25-.53-.17-.66.2zm6.94 0c.44 1.51-1.28 5.75-3.42 7.41v-3.8a8.09 8.09 0 0 1 2.76-3.81c.4-.25.56-.17.66.2z"/><path d="M64.11 93.23c-.44 1.51 1.28 5.75 3.42 7.41v-3.8a8.09 8.09 0 0 0-2.76-3.81c-.41-.25-.57-.17-.66.2zm7 0c.44 1.51-1.28 5.75-3.42 7.41v-3.8a8 8 0 0 1 2.76-3.81c.33-.25.48-.17.66.2zm35.73 0c-.44 1.51 1.28 5.75 3.42 7.41v-3.8a8.09 8.09 0 0 0-2.76-3.81c-.39-.25-.6-.17-.7.2zm6.94 0c.44 1.51-1.28 5.75-3.42 7.41v-3.8a8 8 0 0 1 2.76-3.81c.36-.25.51-.17.62.2z"/><path d="M113.91 93.23c-.44 1.51 1.29 5.75 3.43 7.41v-3.8a8.09 8.09 0 0 0-2.76-3.81c-.4-.25-.47-.17-.67.2zm7 0c.44 1.51-1.29 5.75-3.43 7.41v-3.8a8.23 8.23 0 0 1 2.76-3.81c.35-.25.51-.17.62.2z"/><path d="M121.11 93.23c-.44 1.51 1.28 5.75 3.42 7.41v-3.8a8 8 0 0 0-2.76-3.81c-.48-.25-.66-.17-.66.2zm6.9 0c.44 1.51-1.28 5.75-3.42 7.41v-3.8a8.09 8.09 0 0 1 2.76-3.81c.36-.25.52-.17.62.2zm21.53 0c-.44 1.51 1.28 5.75 3.42 7.41v-3.8a8.09 8.09 0 0 0-2.76-3.81c-.44-.25-.6-.17-.7.2zm6.94 0c.44 1.51-1.28 5.75-3.42 7.41v-3.8a8 8 0 0 1 2.76-3.81c.36-.25.51-.17.62.2z"/><path d="M156.61 93.23c-.44 1.51 1.29 5.75 3.42 7.41v-3.8a8.07 8.07 0 0 0-2.75-3.81c-.4-.25-.56-.17-.67.2zm6.95 0c.44 1.51-1.29 5.75-3.43 7.41v-3.8a8.09 8.09 0 0 1 2.76-3.81c.4-.25.56-.17.67.2z"/><path d="M163.73 93.23c-.44 1.51 1.28 5.75 3.42 7.41v-3.8a8 8 0 0 0-2.76-3.81c-.4-.25-.55-.17-.66.2zm6.94 0c.44 1.51-1.28 5.75-3.42 7.41v-3.8a8.09 8.09 0 0 1 2.76-3.81c.4-.25.56-.17.66.2zM49.86 87.92c-.44 1.51 1.29 5.75 3.43 7.41v-3.8a8.09 8.09 0 0 0-2.76-3.81c-.42-.21-.56-.17-.67.2zm7 0c.44 1.51-1.29 5.75-3.42 7.41v-3.8a8.14 8.14 0 0 1 2.67-3.81c.43-.21.59-.17.7.2z"/><path d="M56.98 87.92c-.44 1.51 1.28 5.75 3.42 7.41v-3.8a8 8 0 0 0-2.76-3.81c-.4-.21-.53-.17-.66.2zm6.94 0c.44 1.51-1.28 5.75-3.42 7.41v-3.8a8.09 8.09 0 0 1 2.76-3.81c.4-.21.56-.17.66.2zm50 0c-.44 1.51 1.29 5.75 3.43 7.41v-3.8a8.09 8.09 0 0 0-2.76-3.81c-.41-.21-.48-.17-.68.2zm7 0c.44 1.51-1.29 5.75-3.43 7.41v-3.8a8.23 8.23 0 0 1 2.76-3.81c.34-.21.5-.17.61.2z"/><path d="M121.11 87.92c-.44 1.51 1.28 5.75 3.42 7.41v-3.8a8 8 0 0 0-2.76-3.81c-.48-.21-.66-.17-.66.2zm6.9 0c.44 1.51-1.28 5.75-3.42 7.41v-3.8a8.09 8.09 0 0 1 2.76-3.81c.36-.21.52-.17.62.2zm35.76 0c-.44 1.51 1.28 5.75 3.42 7.41v-3.8a8 8 0 0 0-2.76-3.81c-.44-.21-.59-.17-.7.2zm6.94 0c.44 1.51-1.28 5.75-3.42 7.41v-3.8a8.09 8.09 0 0 1 2.76-3.81c.36-.21.52-.17.62.2zm-142.2-5.31c-.44 1.51 1.29 5.75 3.43 7.41v-3.8a8.09 8.09 0 0 0-2.76-3.81c-.4-.21-.56-.17-.67.2zm7 0c.44 1.51-1.29 5.75-3.42 7.41v-3.8a8.14 8.14 0 0 1 2.75-3.81c.36-.21.51-.17.62.2zm14.4 0c-.44 1.51 1.29 5.75 3.43 7.41v-3.8a8.09 8.09 0 0 0-2.76-3.81c-.47-.21-.61-.17-.72.2zm7 0c.44 1.51-1.29 5.75-3.42 7.41v-3.8a8.14 8.14 0 0 1 2.62-3.81c.43-.21.59-.17.7.2zm57.1 0c-.44 1.51 1.29 5.75 3.43 7.41v-3.8a8.09 8.09 0 0 0-2.76-3.81c-.5-.21-.57-.17-.77.2zm7 0c.44 1.51-1.29 5.75-3.43 7.41v-3.8a8.23 8.23 0 0 1 2.76-3.81c.25-.21.41-.17.52.2z"/><path d="M121.11 82.61c-.44 1.51 1.28 5.75 3.42 7.41v-3.8a8 8 0 0 0-2.76-3.81c-.48-.21-.66-.17-.66.2zm6.9 0c.44 1.51-1.28 5.75-3.42 7.41v-3.8a8.09 8.09 0 0 1 2.76-3.81c.36-.21.52-.17.62.2zm21.53 0c-.44 1.51 1.28 5.75 3.42 7.41v-3.8a8.09 8.09 0 0 0-2.76-3.81c-.44-.21-.6-.17-.7.2zm6.94 0c.44 1.51-1.28 5.75-3.42 7.41v-3.8a8 8 0 0 1 2.76-3.81c.36-.21.51-.17.62.2zm7.29 0c-.44 1.51 1.28 5.75 3.42 7.41v-3.8a8 8 0 0 0-2.76-3.81c-.44-.21-.59-.17-.7.2zm6.94 0c.44 1.51-1.28 5.75-3.42 7.41v-3.8a8.09 8.09 0 0 1 2.76-3.81c.36-.21.52-.17.62.2zM21.4 77.29c-.44 1.52 1.28 5.76 3.42 7.42v-3.8a8.14 8.14 0 0 0-2.71-3.81c-.45-.21-.61-.18-.71.19zm6.94 0c.44 1.52-1.28 5.76-3.42 7.42v-3.8a8 8 0 0 1 2.76-3.81c.43-.21.55-.18.66.19z"/><path d="M28.51 77.29c-.4 1.49 1.29 5.76 3.43 7.42v-3.8a8.09 8.09 0 0 0-2.76-3.81c-.4-.21-.56-.18-.67.19zm7 0c.44 1.52-1.29 5.76-3.42 7.42v-3.8a8.14 8.14 0 0 1 2.75-3.81c.36-.21.51-.18.62.19zm21.52 0c-.44 1.52 1.28 5.76 3.42 7.42v-3.8a8 8 0 0 0-2.76-3.81c-.45-.21-.58-.18-.71.19zm6.94 0c.44 1.52-1.28 5.76-3.42 7.42v-3.8a8.09 8.09 0 0 1 2.76-3.81c.35-.21.51-.18.61.19zm50 0c-.44 1.52 1.29 5.76 3.43 7.42v-3.8a8.09 8.09 0 0 0-2.76-3.81c-.46-.21-.53-.18-.73.19zm7 0c.44 1.52-1.29 5.76-3.43 7.42v-3.8a8.23 8.23 0 0 1 2.76-3.81c.29-.21.45-.18.56.19zm28.64 0c-.44 1.52 1.28 5.76 3.42 7.42v-3.8a8.09 8.09 0 0 0-2.76-3.81c-.51-.21-.67-.18-.77.19zm6.94 0c.44 1.52-1.28 5.76-3.42 7.42v-3.8a8 8 0 0 1 2.76-3.81c.29-.21.44-.18.55.19zm-135-5.31c-.44 1.52 1.28 5.76 3.42 7.42v-3.8a8.14 8.14 0 0 0-2.86-3.82c-.45-.2-.61-.17-.71.2zm6.94 0c.44 1.52-1.28 5.76-3.42 7.42v-3.8a8 8 0 0 1 2.61-3.82c.43-.2.55-.17.66.2z"/><path d="M28.51 71.98c-.4 1.52 1.29 5.8 3.43 7.38v-3.8a8.09 8.09 0 0 0-2.76-3.78c-.4-.2-.56-.17-.67.2zm7 0c.44 1.52-1.29 5.76-3.39 7.38v-3.8a8.14 8.14 0 0 1 2.7-3.78c.38-.2.53-.17.64.2zm14.4 0c-.49 1.52 1.2 5.8 3.38 7.42v-3.8a8.09 8.09 0 0 0-2.76-3.82c-.42-.2-.56-.17-.67.2zm7 0c.44 1.52-1.29 5.76-3.42 7.42v-3.8a8.14 8.14 0 0 1 2.62-3.82c.43-.2.59-.17.7.2z"/><path d="M56.98 71.98c-.44 1.52 1.28 5.76 3.42 7.42v-3.8a8 8 0 0 0-2.76-3.82c-.4-.2-.53-.17-.66.2zm6.94 0c.44 1.52-1.28 5.76-3.42 7.42v-3.8a8.09 8.09 0 0 1 2.76-3.82c.4-.2.56-.17.66.2zm50 0c-.44 1.52 1.29 5.76 3.43 7.42v-3.8a8.09 8.09 0 0 0-2.77-3.82c-.4-.2-.47-.17-.67.2zm7 0c.44 1.52-1.29 5.76-3.43 7.42v-3.8a8.23 8.23 0 0 1 2.7-3.82c.4-.2.56-.17.67.2zm-92.41-5.31c-.44 1.52 1.29 5.76 3.43 7.42v-3.8a8 8 0 0 0-2.76-3.81c-.4-.21-.56-.18-.67.19zm7 0c.44 1.52-1.29 5.76-3.42 7.42v-3.8a8 8 0 0 1 2.75-3.81c.36-.21.51-.18.62.19zm135.39 0c-.44 1.52 1.28 5.76 3.42 7.42v-3.8a8 8 0 0 0-2.76-3.81c-.45-.21-.61-.18-.71.19zm6.94 0c.44 1.52-1.28 5.76-3.42 7.42v-3.8a7.86 7.86 0 0 1 2.69-3.81c.42-.21.57-.18.68.19zM21.4 61.36c-.44 1.51 1.28 5.76 3.42 7.42v-3.8a8 8 0 0 0-2.71-3.81c-.45-.21-.61-.18-.71.19zm6.94 0c.44 1.51-1.28 5.76-3.42 7.42v-3.8a7.86 7.86 0 0 1 2.76-3.81c.43-.21.55-.18.66.19z"/><path d="M28.51 61.36c-.4 1.51 1.29 5.76 3.43 7.42v-3.8a8 8 0 0 0-2.76-3.81c-.4-.21-.56-.18-.67.19zm7 0c.44 1.51-1.29 5.76-3.42 7.42v-3.8a8 8 0 0 1 2.75-3.81c.36-.21.51-.18.62.19zm14.4 0c-.49 1.51 1.2 5.76 3.38 7.42v-3.8a8 8 0 0 0-2.76-3.81c-.42-.21-.56-.18-.67.19zm7 0c.44 1.51-1.29 5.76-3.42 7.42v-3.8a8 8 0 0 1 2.62-3.81c.43-.21.59-.18.7.19z"/><path d="M56.98 61.36c-.44 1.51 1.28 5.76 3.42 7.42v-3.8a7.86 7.86 0 0 0-2.76-3.81c-.4-.21-.53-.18-.66.19zm6.94 0c.44 1.51-1.28 5.76-3.42 7.42v-3.8a8 8 0 0 1 2.76-3.81c.4-.21.56-.18.66.19zM21.4 56.05c-.44 1.51 1.28 5.76 3.42 7.42v-3.8a8 8 0 0 0-2.71-3.82c-.45-.21-.61-.17-.71.2zm6.94 0c.44 1.51-1.28 5.76-3.42 7.42v-3.8a8.07 8.07 0 0 1 2.76-3.82c.43-.21.55-.17.66.2z"/><path d="M28.51 56.05c-.4 1.51 1.29 5.73 3.43 7.42v-3.8a8.07 8.07 0 0 0-2.76-3.82c-.4-.21-.56-.17-.67.2zm7 0c.44 1.51-1.29 5.76-3.42 7.42v-3.8a8 8 0 0 1 2.75-3.82c.36-.21.51-.17.62.2zm14.4 0c-.49 1.51 1.2 5.73 3.38 7.42v-3.8a8.07 8.07 0 0 0-2.76-3.82c-.42-.21-.56-.17-.67.2zm7 0c.44 1.51-1.29 5.76-3.42 7.42v-3.8a8 8 0 0 1 2.62-3.82c.43-.21.59-.17.7.2z"/><path d="M56.98 56.05c-.44 1.51 1.28 5.76 3.42 7.42v-3.8a8.07 8.07 0 0 0-2.76-3.82c-.4-.21-.53-.17-.66.2zm6.94 0c.44 1.51-1.28 5.76-3.42 7.42v-3.8a8.07 8.07 0 0 1 2.76-3.82c.4-.21.56-.17.66.2z"/><path d="M64.11 56.05c-.44 1.51 1.28 5.76 3.42 7.42v-3.8a8.07 8.07 0 0 0-2.76-3.82c-.41-.21-.57-.17-.66.2zm7 0c.44 1.51-1.28 5.76-3.42 7.42v-3.8a8.07 8.07 0 0 1 2.76-3.82c.33-.21.48-.17.66.2zm35.73 0c-.44 1.51 1.28 5.76 3.42 7.42v-3.8a8.07 8.07 0 0 0-2.76-3.82c-.39-.21-.6-.17-.7.2zm6.94 0c.44 1.51-1.28 5.76-3.42 7.42v-3.8a8 8 0 0 1 2.75-3.82c.37-.21.52-.17.63.2zm28.64 0c-.44 1.51 1.28 5.76 3.42 7.42v-3.8a8 8 0 0 0-2.73-3.82c-.47-.21-.62-.17-.73.2zm6.94 0c.44 1.51-1.28 5.76-3.42 7.42v-3.8a8.07 8.07 0 0 1 2.76-3.82c.41-.21.52-.17.62.2zm21.53 0c-.44 1.51 1.28 5.76 3.42 7.42v-3.8a8.07 8.07 0 0 0-2.76-3.82c-.44-.21-.6-.17-.7.2zm6.94 0c.44 1.51-1.28 5.76-3.42 7.42v-3.8a8.07 8.07 0 0 1 2.7-3.82c.42-.21.57-.17.68.2zm-71-5.31c-.44 1.51 1.28 5.76 3.42 7.42v-3.8a8.07 8.07 0 0 0-2.76-3.82c-.38-.18-.59-.18-.69.24zm6.94 0c.44 1.51-1.28 5.76-3.42 7.42v-3.8a8 8 0 0 1 2.76-3.82c.37-.18.52-.18.63.24zM21.4 45.43c-.44 1.51 1.28 5.76 3.42 7.42v-3.8a8 8 0 0 0-2.71-3.82c-.45-.21-.61-.17-.71.2zm6.94 0c.44 1.51-1.28 5.76-3.42 7.42v-3.8a8.07 8.07 0 0 1 2.76-3.82c.43-.21.55-.17.66.2zm35.73 0c-.44 1.51 1.28 5.76 3.42 7.42v-3.8a8.07 8.07 0 0 0-2.76-3.82c-.37-.21-.53-.17-.62.2zm7 0c.44 1.51-1.28 5.76-3.42 7.42v-3.8a8.07 8.07 0 0 1 2.76-3.82c.37-.21.52-.17.7.2zm7.26 0c-.44 1.51 1.28 5.76 3.42 7.42v-3.8a8.07 8.07 0 0 0-2.76-3.82c-.4-.21-.55-.17-.66.2zm6.94 0c.44 1.51-1.28 5.76-3.42 7.42v-3.8a8.07 8.07 0 0 1 2.76-3.82c.4-.21.56-.17.66.2zm42.88 0c-.44 1.51 1.28 5.76 3.42 7.42v-3.8a8.07 8.07 0 0 0-2.76-3.82c-.4-.21-.56-.17-.7.2zm6.92 0c.44 1.51-1.28 5.76-3.42 7.42v-3.8a8.07 8.07 0 0 1 2.76-3.82c.42-.21.57-.17.7.2zm50 0c-.44 1.51 1.28 5.76 3.42 7.42v-3.8a8.07 8.07 0 0 0-2.76-3.82c-.39-.21-.55-.17-.62.2zm7 0c.44 1.51-1.28 5.76-3.42 7.42v-3.8a8.07 8.07 0 0 1 2.76-3.82c.35-.21.51-.17.7.2zm-92.39-5.31c-.44 1.51 1.28 5.76 3.42 7.42v-3.76a8 8 0 0 0-2.76-3.81c-.4-.26-.55-.19-.66.15zm6.94 0c.44 1.51-1.28 5.76-3.42 7.42v-3.76a8.09 8.09 0 0 1 2.76-3.81c.4-.26.56-.19.66.15zm21.53 0c-.44 1.51 1.28 5.76 3.42 7.42v-3.76a8.09 8.09 0 0 0-2.76-3.81c-.4-.26-.56-.19-.7.15zm6.92 0c.44 1.51-1.28 5.76-3.42 7.42v-3.76a8 8 0 0 1 2.76-3.81c.42-.26.57-.19.7.15zm50 0c-.44 1.51 1.28 5.76 3.42 7.42v-3.76a8 8 0 0 0-2.76-3.81c-.39-.26-.55-.19-.62.15zm7 0c.44 1.51-1.28 5.76-3.42 7.42v-3.76a8.09 8.09 0 0 1 2.76-3.81c.35-.26.51-.19.7.15zM21.4 66.67c-.44 1.52 1.28 5.76 3.42 7.42v-3.8a8 8 0 0 0-2.71-3.81c-.45-.21-.61-.18-.71.19zm6.94 0c.44 1.52-1.28 5.76-3.42 7.42v-3.8a7.86 7.86 0 0 1 2.76-3.81c.43-.21.55-.18.66.19zm21.52 0c-.44 1.52 1.29 5.76 3.43 7.42v-3.8a8 8 0 0 0-2.76-3.81c-.42-.21-.56-.18-.67.19zm7 0c.44 1.52-1.29 5.76-3.42 7.42v-3.8a8 8 0 0 1 2.67-3.81c.43-.21.59-.18.7.19z"/><path d="M56.98 66.67c-.44 1.52 1.28 5.76 3.42 7.42v-3.8a7.86 7.86 0 0 0-2.76-3.81c-.4-.21-.53-.18-.66.19zm6.94 0c.44 1.52-1.28 5.76-3.42 7.42v-3.8a8 8 0 0 1 2.76-3.81c.4-.21.56-.18.66.19zm50 0c-.44 1.52 1.29 5.76 3.43 7.42v-3.8a8 8 0 0 0-2.76-3.81c-.41-.21-.48-.18-.68.19zm7 0c.44 1.52-1.29 5.76-3.43 7.42v-3.8a8 8 0 0 1 2.76-3.81c.34-.21.5-.18.61.19zm-7-5.31c-.44 1.51 1.29 5.76 3.43 7.42v-3.8a8 8 0 0 0-2.76-3.81c-.41-.21-.48-.18-.68.19zm7 0c.44 1.51-1.29 5.76-3.43 7.42v-3.8a8 8 0 0 1 2.76-3.81c.34-.21.5-.18.61.19zm-7-5.31c-.44 1.51 1.29 5.76 3.43 7.42v-3.8a8.07 8.07 0 0 0-2.76-3.82c-.41-.21-.48-.17-.68.2zm7 0c.44 1.51-1.29 5.76-3.43 7.42v-3.8a8.07 8.07 0 0 1 2.76-3.82c.34-.21.5-.17.61.2zm-21.24-5.27c-.44 1.51 1.28 5.76 3.42 7.42v-3.8a8.07 8.07 0 0 0-2.76-3.82c-.4-.22-.55-.22-.66.2zm6.94 0c.44 1.51-1.28 5.76-3.42 7.42v-3.8a8.07 8.07 0 0 1 2.76-3.82c.4-.22.56-.22.66.2zm7.29 0c-.44 1.51 1.29 5.76 3.43 7.42v-3.8a8.07 8.07 0 0 0-2.76-3.82c-.4-.22-.47-.22-.67.2zm7 0c.44 1.51-1.29 5.76-3.43 7.42v-3.8a8.07 8.07 0 0 1 2.76-3.82c.35-.22.51-.22.62.2zm-28.3-5.31c-.44 1.51 1.29 5.76 3.43 7.42v-3.8a8.07 8.07 0 0 0-2.76-3.82c-.45-.25-.61-.21-.72.16zm7 0c.44 1.51-1.29 5.76-3.43 7.42v-3.8a8.07 8.07 0 0 1 2.76-3.82c.3-.25.46-.21.57.16z"/><path d="M99.68 45.43c-.44 1.51 1.28 5.76 3.42 7.42v-3.8a8.07 8.07 0 0 0-2.76-3.82c-.4-.21-.55-.17-.66.2zm6.94 0c.44 1.51-1.28 5.76-3.42 7.42v-3.8a8.07 8.07 0 0 1 2.76-3.82c.4-.21.56-.17.66.2z"/><path d="M106.8 45.43c-.44 1.51 1.28 5.76 3.42 7.42v-3.8a8.07 8.07 0 0 0-2.76-3.82c-.35-.21-.56-.17-.66.2zm6.94 0c.44 1.51-1.28 5.76-3.42 7.42v-3.8a8 8 0 0 1 2.79-3.82c.37-.21.52-.17.63.2zm-21.18-5.31c-.44 1.51 1.29 5.76 3.43 7.42v-3.76a8.09 8.09 0 0 0-2.76-3.81c-.4-.26-.56-.19-.67.15zm7 0c.44 1.51-1.29 5.76-3.43 7.42v-3.76a8.23 8.23 0 0 1 2.76-3.81c.35-.26.51-.19.62.15zm35.75 15.93c-.44 1.51 1.29 5.76 3.42 7.42v-3.8a8 8 0 0 0-2.75-3.82c-.45-.21-.61-.17-.72.2zm6.95 0c.44 1.51-1.29 5.76-3.43 7.42v-3.8a8.07 8.07 0 0 1 2.76-3.82c.35-.21.52-.17.62.2zm-6.95-10.62c-.44 1.51 1.29 5.76 3.42 7.42v-3.8a8 8 0 0 0-2.75-3.82c-.45-.21-.61-.17-.72.2zm6.95 0c.44 1.51-1.29 5.76-3.43 7.42v-3.8a8.07 8.07 0 0 1 2.76-3.82c.35-.21.52-.17.62.2zm-6.95-5.31c-.44 1.51 1.29 5.76 3.42 7.42v-3.76a8.07 8.07 0 0 0-2.75-3.81c-.45-.26-.61-.19-.72.15zm6.95 0c.44 1.51-1.29 5.76-3.43 7.42v-3.76a8.09 8.09 0 0 1 2.76-3.81c.35-.26.52-.19.62.15zm35.75 15.93c-.44 1.51 1.29 5.76 3.42 7.42v-3.8a8 8 0 0 0-2.75-3.82c-.46-.21-.57-.17-.72.2zm7 0c.44 1.51-1.29 5.76-3.43 7.42v-3.8a8.07 8.07 0 0 1 2.76-3.82c.3-.21.46-.17.57.2zm-7-10.62c-.44 1.51 1.29 5.76 3.42 7.42v-3.8a8 8 0 0 0-2.75-3.82c-.46-.21-.57-.17-.72.2zm7 0c.44 1.51-1.29 5.76-3.43 7.42v-3.8a8.07 8.07 0 0 1 2.76-3.82c.3-.21.46-.17.57.2zm-7-5.31c-.44 1.51 1.29 5.76 3.42 7.42v-3.76a8.07 8.07 0 0 0-2.75-3.81c-.46-.26-.57-.19-.72.15zm7 0c.44 1.51-1.29 5.76-3.43 7.42v-3.76a8.09 8.09 0 0 1 2.76-3.81c.3-.26.46-.19.57.15zm-35.41 47.8c-.44 1.51 1.28 5.75 3.42 7.41v-3.8a8.09 8.09 0 0 0-2.76-3.81c-.5-.21-.66-.17-.76.2zm6.94 0c.44 1.51-1.28 5.75-3.42 7.41v-3.8a8 8 0 0 1 2.76-3.81c.3-.21.45-.17.56.2zm-35.43-10.63c-.44 1.52 1.28 5.76 3.42 7.42v-3.8a8 8 0 0 0-2.76-3.81c-.48-.21-.66-.18-.66.19zm6.9 0c.44 1.52-1.28 5.76-3.42 7.42v-3.8a8.09 8.09 0 0 1 2.76-3.81c.36-.21.52-.18.62.19zm35.76 0c-.44 1.52 1.28 5.76 3.42 7.42v-3.8a8 8 0 0 0-2.76-3.81c-.44-.21-.59-.18-.7.19zm6.94 0c.44 1.52-1.28 5.76-3.42 7.42v-3.8a8.09 8.09 0 0 1 2.76-3.81c.36-.21.52-.18.62.19zm-49.6-10.62c-.44 1.52 1.28 5.76 3.42 7.42v-3.8a7.86 7.86 0 0 0-2.76-3.81c-.48-.21-.66-.18-.66.19zm6.9 0c.44 1.52-1.28 5.76-3.42 7.42v-3.8a8 8 0 0 1 2.76-3.81c.36-.21.52-.18.62.19zm14.41 0c-.44 1.52 1.28 5.76 3.42 7.42v-3.8a7.92 7.92 0 0 0-2.73-3.81c-.47-.21-.62-.18-.73.19zm6.94 0c.44 1.52-1.28 5.76-3.42 7.42v-3.8a8 8 0 0 1 2.76-3.81c.41-.21.52-.18.62.19z"/><path d="M149.5 66.67c-.44 1.52 1.28 5.76 3.42 7.42v-3.8a8 8 0 0 0-2.76-3.81c-.4-.21-.56-.18-.66.19zm6.94 0c.44 1.52-1.28 5.76-3.42 7.42v-3.8a7.86 7.86 0 0 1 2.76-3.81c.4-.21.55-.18.66.19zm7.29 0c-.44 1.52 1.28 5.76 3.42 7.42v-3.8a7.86 7.86 0 0 0-2.76-3.81c-.4-.21-.55-.18-.66.19zm6.94 0c.44 1.52-1.28 5.76-3.42 7.42v-3.8a8 8 0 0 1 2.76-3.81c.4-.21.56-.18.66.19zm-49.56-5.31c-.44 1.51 1.28 5.76 3.42 7.42v-3.8a7.86 7.86 0 0 0-2.76-3.81c-.48-.21-.66-.18-.66.19zm6.9 0c.44 1.51-1.28 5.76-3.42 7.42v-3.8a8 8 0 0 1 2.76-3.81c.36-.21.52-.18.62.19zm28.64 26.56c-.44 1.51 1.29 5.75 3.42 7.41v-3.8a8.07 8.07 0 0 0-2.75-3.81c-.44-.21-.6-.17-.71.2zm6.95 0c.44 1.51-1.29 5.75-3.43 7.41v-3.8a8.09 8.09 0 0 1 2.76-3.81c.36-.21.52-.17.63.2zm-6.99-10.63c-.44 1.52 1.29 5.76 3.42 7.42v-3.8a8.07 8.07 0 0 0-2.75-3.81c-.4-.21-.56-.18-.67.19zm6.95 0c.44 1.52-1.29 5.76-3.43 7.42v-3.8a8.09 8.09 0 0 1 2.76-3.81c.4-.21.56-.18.67.19zm-14.06-5.31c-.44 1.52 1.28 5.76 3.42 7.42v-3.8a8.09 8.09 0 0 0-2.76-3.82c-.4-.2-.56-.17-.66.2zm6.94 0c.44 1.52-1.28 5.76-3.42 7.42v-3.8a8 8 0 0 1 2.76-3.82c.4-.2.55-.17.66.2z"/><path d="M156.61 71.98c-.44 1.52 1.29 5.76 3.42 7.42v-3.8a8.07 8.07 0 0 0-2.75-3.82c-.4-.2-.56-.17-.67.2zm6.95 0c.44 1.52-1.29 5.76-3.43 7.42v-3.8a8.09 8.09 0 0 1 2.76-3.82c.4-.2.56-.17.67.2zm-21.18-10.62c-.44 1.51 1.28 5.76 3.42 7.42v-3.8a7.92 7.92 0 0 0-2.69-3.81c-.47-.21-.62-.18-.73.19zm6.94 0c.44 1.51-1.28 5.76-3.42 7.42v-3.8a8 8 0 0 1 2.76-3.81c.45-.21.56-.18.66.19zm21.53 0c-.44 1.51 1.28 5.76 3.42 7.42v-3.8a8 8 0 0 0-2.76-3.81c-.4-.21-.56-.18-.66.19zm6.94 0c.44 1.51-1.28 5.76-3.42 7.42v-3.8a7.86 7.86 0 0 1 2.74-3.81c.42-.21.57-.18.68.19zm-6.94-10.58c-.44 1.51 1.28 5.76 3.42 7.42v-3.8a8.07 8.07 0 0 0-2.76-3.82c-.4-.22-.56-.22-.66.2zm6.94 0c.44 1.51-1.28 5.76-3.42 7.42v-3.8a8.07 8.07 0 0 1 2.74-3.86c.42-.18.57-.18.68.24z"/><path d="M149.5 61.36c-.44 1.51 1.28 5.76 3.42 7.42v-3.8a8 8 0 0 0-2.76-3.81c-.4-.21-.56-.18-.66.19zm6.94 0c.44 1.51-1.28 5.76-3.42 7.42v-3.8a7.86 7.86 0 0 1 2.76-3.81c.4-.21.55-.18.66.19zm21.52-10.58c-.44 1.51 1.29 5.76 3.42 7.42v-3.8a8 8 0 0 0-2.75-3.82c-.41-.22-.52-.22-.67.2zm7 0c.44 1.51-1.29 5.76-3.43 7.42v-3.8a8.07 8.07 0 0 1 2.76-3.82c.35-.22.51-.22.62.2zm-28.35 31.83c-.44 1.51 1.29 5.75 3.42 7.41v-3.8a8.07 8.07 0 0 0-2.75-3.81c-.4-.21-.56-.17-.67.2zm6.95 0c.44 1.51-1.29 5.75-3.43 7.41v-3.8a8.09 8.09 0 0 1 2.76-3.81c.4-.21.56-.17.67.2zm-42.45-10.63c-.44 1.52 1.28 5.76 3.42 7.42v-3.8a8 8 0 0 0-2.8-3.82c-.44-.2-.62-.17-.62.2zm6.9 0c.44 1.52-1.28 5.76-3.42 7.42v-3.8a8.09 8.09 0 0 1 2.72-3.82c.4-.2.56-.17.66.2zm35.76 0c-.44 1.52 1.28 5.76 3.42 7.42v-3.8a8 8 0 0 0-2.8-3.82c-.4-.2-.55-.17-.66.2zm6.94 0c.44 1.52-1.28 5.76-3.42 7.42v-3.8a8.09 8.09 0 0 1 2.72-3.82c.4-.2.56-.17.66.2zm-6.94-10.62c-.44 1.51 1.28 5.76 3.42 7.42v-3.8a7.86 7.86 0 0 0-2.76-3.81c-.44-.21-.59-.18-.7.19zm6.94 0c.44 1.51-1.28 5.76-3.42 7.42v-3.8a8 8 0 0 1 2.76-3.81c.36-.21.52-.18.62.19zm-28.33-10.58c-.44 1.51 1.28 5.76 3.42 7.42v-3.8a8 8 0 0 0-2.69-3.86c-.47-.18-.62-.18-.73.24zm6.94 0c.44 1.51-1.28 5.76-3.42 7.42v-3.8a8.07 8.07 0 0 1 2.76-3.82c.45-.22.56-.22.66.2zm-14.06 0c-.44 1.51 1.29 5.76 3.42 7.42v-3.8a8 8 0 0 0-2.75-3.82c-.4-.22-.56-.22-.67.2z"/><path d="M142.21 50.78c.44 1.51-1.29 5.76-3.43 7.42v-3.8a8.07 8.07 0 0 1 2.76-3.82c.4-.22.57-.22.67.2zm14.4 47.8c-.44 1.51 1.29 5.75 3.42 7.42v-3.81a8.07 8.07 0 0 0-2.75-3.81c-.4-.25-.56-.21-.67.16zm6.95 0c.44 1.51-1.29 5.75-3.43 7.42v-3.81a8.09 8.09 0 0 1 2.76-3.81c.4-.25.56-.21.67.16zm.17-37.18c-.44 1.51 1.28 5.76 3.42 7.42v-3.84a7.86 7.86 0 0 0-2.76-3.81c-.4-.21-.55-.18-.66.19zm6.94 0c.44 1.51-1.28 5.76-3.42 7.42v-3.84a8 8 0 0 1 2.76-3.81c.4-.21.56-.18.66.19zm.18-10.62c-.44 1.51 1.28 5.76 3.42 7.42v-3.8a8.07 8.07 0 0 0-2.76-3.82c-.4-.22-.56-.22-.66.2zm6.94 0c.44 1.51-1.28 5.76-3.42 7.42v-3.8a8.07 8.07 0 0 1 2.74-3.86c.42-.18.57-.18.68.24zm-56.68 31.83c-.44 1.51 1.28 5.75 3.42 7.41v-3.8a8 8 0 0 0-2.76-3.81c-.48-.21-.66-.17-.66.2zm6.9 0c.44 1.51-1.28 5.75-3.42 7.41v-3.8a8.09 8.09 0 0 1 2.76-3.81c.36-.21.52-.17.62.2zM14.28 109.16c-.44 1.51 1.28 5.76 3.42 7.42v-3.8a8.07 8.07 0 0 0-2.76-3.82c-.4-.18-.55-.18-.66.2zm6.94 0c.44 1.51-1.28 5.76-3.42 7.42v-3.8a8.07 8.07 0 0 1 2.76-3.82c.4-.18.55-.18.66.2z"/><path d="M21.4 109.16c-.44 1.51 1.28 5.76 3.42 7.42v-3.8a8 8 0 0 0-2.71-3.82c-.45-.18-.61-.18-.71.2zm6.94 0c.44 1.51-1.28 5.76-3.42 7.42v-3.8a8.07 8.07 0 0 1 2.76-3.82c.43-.18.55-.18.66.2zm42.87 0c-.44 1.51 1.29 5.76 3.43 7.42v-3.8a8.07 8.07 0 0 0-2.76-3.82c-.4-.18-.56-.18-.67.2zm7 0c.44 1.51-1.29 5.76-3.43 7.42v-3.8a8.07 8.07 0 0 1 2.76-3.82c.35-.18.57-.18.62.2zm-78.1-5.31c-.44 1.51 1.28 5.76 3.42 7.42v-3.8a8.07 8.07 0 0 0-2.76-3.82c-.46-.21-.66-.17-.66.2zm6.92 0c.44 1.51-1.28 5.76-3.42 7.42v-3.8a8.07 8.07 0 0 1 2.76-3.82c.36-.21.52-.17.62.2z"/><path d="M7.16 103.85c-.44 1.51 1.29 5.76 3.43 7.42v-3.8a8.07 8.07 0 0 0-2.76-3.82c-.4-.21-.56-.17-.67.2zm6.91 0c.44 1.51-1.29 5.76-3.42 7.42v-3.8a8 8 0 0 1 2.75-3.82c.45-.21.6-.17.71.2zm7.33 0c-.44 1.51 1.28 5.76 3.42 7.42v-3.8a8 8 0 0 0-2.71-3.82c-.45-.21-.61-.17-.71.2zm6.94 0c.44 1.51-1.28 5.76-3.42 7.42v-3.8a8.07 8.07 0 0 1 2.76-3.82c.43-.21.55-.17.66.2zm35.73 0c-.44 1.51 1.28 5.76 3.42 7.42v-3.8a8.07 8.07 0 0 0-2.76-3.82c-.37-.21-.53-.17-.62.2zm7 0c.44 1.51-1.28 5.76-3.42 7.42v-3.8a8.07 8.07 0 0 1 2.76-3.82c.37-.21.52-.17.7.2zm7.26 0c-.44 1.51 1.28 5.76 3.42 7.42v-3.8a8.07 8.07 0 0 0-2.76-3.82c-.4-.21-.55-.17-.66.2zm6.94 0c.44 1.51-1.28 5.76-3.42 7.42v-3.8a8.07 8.07 0 0 1 2.76-3.82c.4-.21.56-.17.66.2zM21.4 93.23c-.44 1.51 1.28 5.75 3.42 7.41v-3.8a8.14 8.14 0 0 0-2.71-3.81c-.45-.25-.61-.17-.71.2zm6.94 0c.44 1.51-1.28 5.75-3.42 7.41v-3.8a8 8 0 0 1 2.76-3.81c.43-.25.55-.17.66.2zm-6.94-5.31c-.44 1.51 1.28 5.75 3.42 7.41v-3.8a8.14 8.14 0 0 0-2.71-3.81c-.45-.21-.61-.17-.71.2zm6.94 0c.44 1.51-1.28 5.75-3.42 7.41v-3.8a8 8 0 0 1 2.76-3.81c.43-.21.55-.17.66.2z"/><path d="M28.51 87.92c-.44 1.51 1.29 5.75 3.43 7.41v-3.8a8.09 8.09 0 0 0-2.76-3.81c-.4-.21-.56-.17-.67.2zm7 0c.44 1.51-1.29 5.75-3.42 7.41v-3.8a8.14 8.14 0 0 1 2.75-3.81c.36-.21.51-.17.62.2zM21.4 82.61c-.44 1.51 1.28 5.75 3.42 7.41v-3.8a8.14 8.14 0 0 0-2.71-3.81c-.45-.21-.61-.17-.71.2zm6.94 0c.44 1.51-1.28 5.75-3.42 7.41v-3.8a8 8 0 0 1 2.76-3.81c.43-.21.55-.17.66.2zm28.64 0c-.44 1.51 1.28 5.75 3.42 7.41v-3.8a8 8 0 0 0-2.76-3.81c-.4-.21-.53-.17-.66.2zm6.94 0c.44 1.51-1.28 5.75-3.42 7.41v-3.8a8.09 8.09 0 0 1 2.76-3.81c.4-.21.56-.17.66.2zm-14.06-5.32c-.44 1.49 1.25 5.76 3.43 7.42v-3.8a8.09 8.09 0 0 0-2.76-3.81c-.42-.21-.56-.18-.67.19zm7 0c.44 1.52-1.29 5.76-3.42 7.42v-3.8a8.14 8.14 0 0 1 2.67-3.81c.43-.21.59-.18.7.19zM21.4 50.78c-.44 1.51 1.28 5.76 3.42 7.42v-3.8a8 8 0 0 0-2.71-3.86c-.45-.18-.61-.18-.71.24zm6.94 0c.44 1.51-1.28 5.76-3.42 7.42v-3.8a8.07 8.07 0 0 1 2.76-3.82c.43-.22.55-.22.66.2z"/><path d="M28.51 50.78c-.44 1.51 1.29 5.76 3.43 7.42v-3.8a8.07 8.07 0 0 0-2.76-3.82c-.4-.22-.56-.22-.67.2zm7 0c.44 1.51-1.29 5.76-3.42 7.42v-3.8a8 8 0 0 1 2.75-3.82c.36-.22.51-.22.62.2zm21.52 0c-.44 1.51 1.28 5.76 3.42 7.42v-3.8a8.07 8.07 0 0 0-2.76-3.82c-.45-.22-.58-.22-.71.2zm6.94 0c.44 1.51-1.28 5.76-3.42 7.42v-3.8a8.07 8.07 0 0 1 2.76-3.82c.35-.22.51-.22.61.2z"/><path d="M64.11 50.78c-.44 1.51 1.28 5.76 3.42 7.42v-3.8a8.07 8.07 0 0 0-2.76-3.82c-.41-.22-.57-.22-.66.2zm7 0c.44 1.51-1.28 5.76-3.42 7.42v-3.8a8.07 8.07 0 0 1 2.76-3.82c.33-.22.48-.22.66.2z"/><path d="M71.21 50.78c-.44 1.51 1.29 5.76 3.43 7.42v-3.8a8.07 8.07 0 0 0-2.76-3.82c-.4-.22-.56-.22-.67.2zm7 0c.44 1.51-1.29 5.76-3.43 7.42v-3.8a8.07 8.07 0 0 1 2.76-3.82c.35-.22.57-.22.62.2zm-49.7-5.35c-.44 1.51 1.29 5.76 3.43 7.42v-3.8a8.07 8.07 0 0 0-2.76-3.82c-.4-.21-.56-.17-.67.2zm7 0c.44 1.51-1.29 5.76-3.42 7.42v-3.8a8 8 0 0 1 2.75-3.82c.36-.21.51-.17.62.2zm21.52 0c-.44 1.51 1.28 5.76 3.42 7.42v-3.8a8.07 8.07 0 0 0-2.76-3.82c-.45-.21-.58-.17-.71.2zm6.94 0c.44 1.51-1.28 5.76-3.42 7.42v-3.8a8.07 8.07 0 0 1 2.76-3.82c.35-.21.51-.17.61.2zm7.29 0c-.44 1.51 1.29 5.76 3.43 7.42v-3.8a8.07 8.07 0 0 0-2.76-3.82c-.45-.21-.61-.17-.72.2zm7 0c.44 1.51-1.29 5.76-3.43 7.42v-3.8a8.07 8.07 0 0 1 2.76-3.82c.3-.21.52-.17.57.2zM21.4 40.12c-.44 1.51 1.28 5.76 3.42 7.42v-3.76a8.14 8.14 0 0 0-2.71-3.86c-.45-.21-.61-.14-.71.2zm6.94 0c.44 1.51-1.28 5.76-3.42 7.42v-3.76a8 8 0 0 1 2.76-3.81c.43-.26.55-.19.66.15z"/><path d="M28.51 40.12c-.44 1.51 1.29 5.76 3.43 7.42v-3.76a8.09 8.09 0 0 0-2.76-3.81c-.4-.26-.56-.19-.67.15zm7 0c.44 1.51-1.29 5.76-3.42 7.42v-3.76a8.14 8.14 0 0 1 2.75-3.81c.36-.26.51-.19.62.15zm35.75 0c-.44 1.51 1.29 5.76 3.43 7.42v-3.76a8.09 8.09 0 0 0-2.76-3.81c-.45-.26-.61-.19-.72.15zm7 0c.44 1.51-1.29 5.76-3.43 7.42v-3.76a8.23 8.23 0 0 1 2.76-3.81c.3-.26.52-.19.57.15z"/><path d="M78.33 40.12c-.44 1.51 1.28 5.76 3.42 7.42v-3.76a8 8 0 0 0-2.76-3.81c-.4-.26-.55-.19-.66.15zm6.94 0c.44 1.51-1.28 5.76-3.42 7.42v-3.76a8.09 8.09 0 0 1 2.76-3.81c.4-.26.56-.19.66.15zm.18 5.31c-.44 1.51 1.28 5.76 3.42 7.42v-3.8a8.08 8.08 0 0 0-2.76-3.82c-.4-.21-.56-.17-.66.2zm6.94 0c.44 1.51-1.28 5.76-3.42 7.42v-3.8a8.07 8.07 0 0 1 2.76-3.82c.38-.21.55-.17.66.2z"/><path d="M85.45 40.12c-.44 1.51 1.28 5.76 3.42 7.42v-3.76a8.07 8.07 0 0 0-2.76-3.86c-.4-.21-.56-.14-.66.2zm6.94 0c.44 1.51-1.28 5.76-3.42 7.42v-3.76a8 8 0 0 1 2.76-3.81c.38-.26.55-.19.66.15z"/></g><path d="M52.69 17.29a.58.58 0 0 1 .42.2l1.15 1.29a9.25 9.25 0 0 1-3.15 2.34 11 11 0 0 1-4.55.85 10.73 10.73 0 0 1-4.2-.8 9.39 9.39 0 0 1-3.25-2.25 10.21 10.21 0 0 1-2.07-3.47 13 13 0 0 1-.73-4.46 12.48 12.48 0 0 1 .76-4.45 10.27 10.27 0 0 1 2.15-3.48 9.64 9.64 0 0 1 3.3-2.28 10.94 10.94 0 0 1 4.27-.8 10.42 10.42 0 0 1 4 .73 10.21 10.21 0 0 1 3.09 2l-1 1.33a.92.92 0 0 1-.23.25.71.71 0 0 1-.38.1 1.17 1.17 0 0 1-.66-.3 11 11 0 0 0-1-.65 7.63 7.63 0 0 0-3.9-.94 7.93 7.93 0 0 0-3.05.57 6.78 6.78 0 0 0-2.31 1.71 7.79 7.79 0 0 0-1.55 2.67 10.63 10.63 0 0 0-.55 3.55 10.52 10.52 0 0 0 .57 3.59 8 8 0 0 0 1.58 2.66 6.71 6.71 0 0 0 2.35 1.66 7.55 7.55 0 0 0 2.94.57 11.46 11.46 0 0 0 1.73-.12 6.71 6.71 0 0 0 1.42-.35 5.8 5.8 0 0 0 1.27-.62 8.5 8.5 0 0 0 1.12-.87.78.78 0 0 1 .46-.23zM75.05.24v21.54h-2.94v-9.83H60.55v9.83h-2.91V.24h2.91v9.54h11.56V.24zM100.4 10.99a12.37 12.37 0 0 1-.76 4.43 10.14 10.14 0 0 1-2.16 3.48 9.55 9.55 0 0 1-3.37 2.25 11.92 11.92 0 0 1-8.64 0 9.6 9.6 0 0 1-3.36-2.25 10.14 10.14 0 0 1-2.16-3.48 12.37 12.37 0 0 1-.76-4.43 12.37 12.37 0 0 1 .76-4.43 10.14 10.14 0 0 1 2.16-3.48 9.65 9.65 0 0 1 3.37-2.3 11.92 11.92 0 0 1 8.63 0 9.6 9.6 0 0 1 3.36 2.27 10.14 10.14 0 0 1 2.16 3.48 12.37 12.37 0 0 1 .77 4.46zm-3 0a10.89 10.89 0 0 0-.54-3.55 7.47 7.47 0 0 0-1.52-2.66 6.57 6.57 0 0 0-2.39-1.67 8.82 8.82 0 0 0-6.29 0 6.82 6.82 0 0 0-2.41 1.67 7.45 7.45 0 0 0-1.53 2.67 10.89 10.89 0 0 0-.54 3.55 10.89 10.89 0 0 0 .54 3.55 7.36 7.36 0 0 0 1.53 2.65 6.7 6.7 0 0 0 2.41 1.67 8.82 8.82 0 0 0 6.29 0 6.45 6.45 0 0 0 2.39-1.67 7.38 7.38 0 0 0 1.54-2.65 10.89 10.89 0 0 0 .54-3.56zM124.41 10.99a12.37 12.37 0 0 1-.76 4.43 10.14 10.14 0 0 1-2.16 3.48 9.6 9.6 0 0 1-3.38 2.25 12 12 0 0 1-8.65 0 9.6 9.6 0 0 1-3.35-2.25 10.14 10.14 0 0 1-2.16-3.48 12.37 12.37 0 0 1-.76-4.43 12.37 12.37 0 0 1 .76-4.43 10.14 10.14 0 0 1 2.16-3.48 9.65 9.65 0 0 1 3.38-2.3 12 12 0 0 1 8.62 0 9.65 9.65 0 0 1 3.35 2.27 10.14 10.14 0 0 1 2.16 3.48 12.37 12.37 0 0 1 .79 4.46zm-3 0a10.89 10.89 0 0 0-.54-3.55 7.6 7.6 0 0 0-1.51-2.66 6.69 6.69 0 0 0-2.4-1.67 8.15 8.15 0 0 0-3.15-.58 8 8 0 0 0-3.13.58 6.65 6.65 0 0 0-2.41 1.67 7.47 7.47 0 0 0-1.54 2.67 10.89 10.89 0 0 0-.54 3.55 10.89 10.89 0 0 0 .54 3.55 7.38 7.38 0 0 0 1.54 2.65 6.53 6.53 0 0 0 2.41 1.67 8.23 8.23 0 0 0 3.13.58 8.34 8.34 0 0 0 3.15-.58 6.57 6.57 0 0 0 2.4-1.67 7.51 7.51 0 0 0 1.53-2.65 10.89 10.89 0 0 0 .54-3.56zM139.56 3.6a1 1 0 0 1-.29.33.6.6 0 0 1-.38.12 1.08 1.08 0 0 1-.6-.26 10 10 0 0 0-.86-.56 6.66 6.66 0 0 0-1.25-.56 6 6 0 0 0-3.48 0 3.75 3.75 0 0 0-1.24.72 2.89 2.89 0 0 0-.76 1.05 3.41 3.41 0 0 0-.26 1.32 2.4 2.4 0 0 0 .45 1.49 3.76 3.76 0 0 0 1.17 1 9 9 0 0 0 1.65.73l1.89.64c.64.22 1.27.46 1.89.74a6.68 6.68 0 0 1 1.65 1 4.92 4.92 0 0 1 1.17 1.55 5.22 5.22 0 0 1 .44 2.25 7.2 7.2 0 0 1-.48 2.64 6.15 6.15 0 0 1-1.4 2.16 6.58 6.58 0 0 1-2.27 1.44 8.3 8.3 0 0 1-3.05.52 9.23 9.23 0 0 1-3.81-.76 8.87 8.87 0 0 1-2.93-2l.84-1.38a1 1 0 0 1 .3-.28.63.63 0 0 1 .38-.11.86.86 0 0 1 .44.15c.17.11.35.24.56.4l.72.53a5.81 5.81 0 0 0 .93.52 6.4 6.4 0 0 0 1.17.4 6.74 6.74 0 0 0 1.49.16 5.51 5.51 0 0 0 1.84-.29 4.07 4.07 0 0 0 1.38-.8 3.59 3.59 0 0 0 .86-1.24 4.11 4.11 0 0 0 .3-1.6 2.73 2.73 0 0 0-.44-1.6 3.68 3.68 0 0 0-1.17-1 8.36 8.36 0 0 0-1.65-.72l-1.89-.6a18.74 18.74 0 0 1-1.89-.71 6.11 6.11 0 0 1-1.65-1.05 4.93 4.93 0 0 1-1.16-1.61 5.87 5.87 0 0 1 1.29-6.55 6.33 6.33 0 0 1 2.09-1.32 7.58 7.58 0 0 1 2.84-.49 9.07 9.07 0 0 1 3.28.57 7.78 7.78 0 0 1 2.6 1.65zM158.11 19.36v2.42h-13.27V.24h13.27v2.37h-10.36v7.17h8.36v2.28h-8.37v7.33z"/></g></svg>