<svg xmlns="http://www.w3.org/2000/svg" width="125" height="125"><switch><g><path fill="#FCA466" stroke="#FB6B21" stroke-width="1.577" stroke-linecap="round" stroke-linejoin="round" stroke-miterlimit="10" d="M34.8 57.3c-.3 1 0 2 .8 2.7l13.2 11-1.8 6.8-2.5 9.9c-.3 1 .1 2 .9 2.6.2.2.4.3.7.3h.2c.2 0 .3.1.5.1s.3 0 .5-.1h.2c.2-.1.5-.2.7-.3L62.6 81 77 90.4c.2.1.4.2.7.3h.2c.2 0 .3.1.5.1s.3 0 .5-.1h.2c.2-.1.5-.2.7-.3.8-.6 1.2-1.6.9-2.6l-2.1-8.2-.4-1.7-1.8-6.9 13.2-11c.8-.7 1.1-1.7.8-2.7-.3-1-1.2-1.6-2.2-1.7l-17.1-1.1-2.8-7.2-.8-1.9-2.7-6.8c-.4-1-1.3-1.6-2.3-1.6s-1.9.6-2.3 1.6l-2.7 6.8-3.5 9.1-17.1 1.1c-1 .1-1.8.8-2.1 1.7z"/><path fill="#FDDFCA" d="M15.5 62.9l-4.2 16.7c-.3 1 .1 2 .9 2.6.8.6 1.9.6 2.8.1l.8-.5L29.4 73l2 1.3 8.2 5.3.2-.9.3-1.3.8-3.1-11.3-9.4c-1.5-1.3-2.3-3.1-2.3-4.9v-.1c0-.7.1-1.3.3-2 .8-2.5 10.2-11.5 10.2-11.5l-6.3-16c-.1-.2-.2-.4-.3-.5-.5-.6-1.2-1.1-2-1.1-1 0-1.9.6-2.3 1.6l-6.3 16-16.8 1.1c-1 .1-1.9.7-2.2 1.7-.3 1 0 2 .8 2.7l13.1 11z"/><path fill="#FDDFCA" stroke="#FB6B21" stroke-width="1.9" stroke-linecap="round" stroke-linejoin="round" stroke-miterlimit="10" d="M18.8 61l-4.2 16.7c-.3 1 .1 2 .9 2.6.8.6 1.9.6 2.8.1l.8-.5 13.6-8.7 2 1.3 8.2 5.3.2-.9.3-1.3.8-3.1L33 63.1c-1.5-1.3-2.3-3.1-2.3-4.9v-.1c0-.7.1-1.3.3-2 .8-2.5 3.1-4.3 5.7-4.4l14.5-.9 2.1-5.4-12.1-.8-6.3-16c-.1-.2-.2-.4-.3-.5-.5-.6-1.2-1.1-2-1.1-1 0-1.9.6-2.3 1.6l-6.3 16-17 1c-1 .1-1.9.7-2.2 1.7-.3 1 0 2 .8 2.7l13.2 11z"/><path fill="#FCA466" stroke="#FB6B21" stroke-width="1.577" stroke-linecap="round" stroke-linejoin="round" stroke-miterlimit="10" d="M34.8 57.3c-.3 1 0 2 .8 2.7l13.2 11-1.8 6.8-2.5 9.9c-.3 1 .1 2 .9 2.6.2.2.4.3.7.3h.2c.2 0 .3.1.5.1s.3 0 .5-.1h.2c.2-.1.5-.2.7-.3L62.6 81 77 90.4c.2.1.4.2.7.3h.2c.2 0 .3.1.5.1s.3 0 .5-.1h.2c.2-.1.5-.2.7-.3.8-.6 1.2-1.6.9-2.6l-2.1-8.2-.4-1.7-1.8-6.9 13.2-11c.8-.7 1.1-1.7.8-2.7-.3-1-1.2-1.6-2.2-1.7l-17.1-1.1-2.8-7.2-.8-1.9-2.7-6.8c-.4-1-1.3-1.6-2.3-1.6s-1.9.6-2.3 1.6l-2.7 6.8-3.5 9.1-17.1 1.1c-1 .1-1.8.8-2.1 1.7z"/><path opacity=".24" fill="#FB6B21" d="M35.1 59.6L48.7 71 47 77.8l-2.5 9.9c-.3 1 .1 2 .9 2.6.2.2.4.3.7.3h.2c.2 0 .3.1.5.1s.3 0 .5-.1h.2c.2-.1.5-.2.7-.3L62.6 81 77 90.4c.2.1.4.2.7.3h.2c.2 0 .3.1.5.1s.3 0 .5-.1h.2c.2-.1.5-.2.7-.3.8-.6 1.2-1.6.9-2.6l-2.1-8.2s-2.1-3.5-7.4-3.4c-1.6 0-4.5 2.9-8.1 1.4-3-1.2-4.7-10.7-12.1-15-8.8-5.3-16.2-3.2-15.9-3z"/><path fill="#FFF" stroke="#FFF" stroke-width="1.577" stroke-linecap="round" stroke-miterlimit="10" d="M63.2 42.8l.9 2.3M65.1 47.5l2.7 6.8"/><path fill="#FDDFCA" d="M110.1 62.9l4.2 16.7c.3 1-.1 2-.9 2.6-.8.6-1.9.6-2.8.1l-.8-.5L96.2 73l-2 1.3-8.2 5.3-.2-.9-.3-1.3-.8-3.1L96 64.9c1.5-1.3 2.3-3.1 2.3-4.9v-.1c0-.7-.1-1.3-.3-2-.8-2.5-10.2-11.5-10.2-11.5l6.3-16c.1-.2.2-.4.3-.5.5-.6 1.2-1.1 2-1.1 1 0 1.9.6 2.3 1.6l6.3 16 17.1 1.1c1 .1 1.9.7 2.2 1.7.3 1 0 2-.8 2.7l-13.4 11z"/><path fill="#FDDFCA" stroke="#FB6B21" stroke-width="1.9" stroke-linecap="round" stroke-linejoin="round" stroke-miterlimit="10" d="M106.9 61l4.2 16.7c.3 1-.1 2-.9 2.6-.8.6-1.9.6-2.8.1l-.8-.5L93 71.2l-2 1.3-8.2 5.3-.2-.9-.3-1.3-.8-3.1 11.3-9.4c1.5-1.3 2.3-3.1 2.3-4.9v-.1c0-.7-.1-1.3-.3-2-.8-2.5-3.1-4.3-5.7-4.4l-14.5-.9-2.1-5.4 12.1-.8 6.3-16c.1-.2.2-.4.3-.5.5-.6 1.2-1.1 2-1.1 1 0 1.9.6 2.3 1.6l6.3 16 17.1 1.1c1 .1 1.9.7 2.2 1.7.3 1 0 2-.8 2.7L106.9 61z"/></g></switch></svg>