<svg id="Layer_1" data-name="Layer 1" xmlns="http://www.w3.org/2000/svg" viewBox="0 0 163.9 163.9"><defs><style>.cls-1{fill:#8891b2;}.cls-2{fill:#325a8b;}</style></defs><path d="M123.56,112.73a82,82,0,1,0,82-82A82.05,82.05,0,0,0,123.56,112.73Zm1.13,0a80.83,80.83,0,1,1,80.83,80.82A80.92,80.92,0,0,1,124.69,112.73Z" transform="translate(-123.56 -30.77)"/><path d="M126.24,112.73a79.28,79.28,0,1,0,79.27-79.28A79.36,79.36,0,0,0,126.24,112.73Zm3.6,0a75.68,75.68,0,1,1,75.67,75.68A75.76,75.76,0,0,1,129.84,112.73Z" transform="translate(-123.56 -30.77)"/><path d="M143,126.32V98.54h28.85v5.06H152.79v5.71H166v5H152.79v6.79h19.08v5.21Z" transform="translate(-123.56 -30.77)"/><path d="M189.61,126.72a19.86,19.86,0,0,1-10.6-2.83c-3.6-2.33-5.48-6.1-5.48-11.41,0-5.46,1.95-9.27,5.86-11.66a21.86,21.86,0,0,1,11.05-2.72c8,0,13.07,3.22,14.72,8L196,107.17a5.7,5.7,0,0,0-5.86-4.06c-4.36,0-6.47,2.38-6.47,9.17s2,9.38,7,9.38c3.16,0,5.49-1.49,7.21-4.52l7.89,1.54C202.76,124.34,197.5,126.72,189.61,126.72Z" transform="translate(-123.56 -30.77)"/><path d="M219.22,103.65v5.81h15v5.05h-15v11.81h-9.78V98.54h28.94v5.11Z" transform="translate(-123.56 -30.77)"/><path d="M258.05,126.32l-2.32-6.3h-10l-2.33,6.3H233.26L246,98.54h9.39l12.85,27.78Zm-7.28-18.6L247.69,115h6.08Z" transform="translate(-123.56 -30.77)"/><polygon class="cls-1" points="70.67 45.29 72.32 45.29 71.5 41.67 70.67 45.29"/><path class="cls-1" d="M235.08,70.25H234V73.5h1.26c.91,0,1.6-.29,1.6-1.65S236,70.25,235.08,70.25Z" transform="translate(-123.56 -30.77)"/><path class="cls-1" d="M205.16,70.25h-1.08V73.5h1.26c.91,0,1.6-.29,1.6-1.65S206.05,70.25,205.16,70.25Z" transform="translate(-123.56 -30.77)"/><path class="cls-1" d="M205.54,47.92A64.84,64.84,0,0,0,143.63,93.5H267.45A64.84,64.84,0,0,0,205.54,47.92Zm-31.3,34a3.76,3.76,0,0,1-2.86-1.41c-1-1.15-1.48-3-1.48-5.66s.54-4.61,1.58-5.79a4.08,4.08,0,0,1,3-1.36c2.16,0,3.56,1.6,4,4l-2.47.54c-.29-1.38-.78-2-1.57-2-1.2,0-1.76,1.18-1.76,4.56s.52,4.66,1.9,4.66c.86,0,1.47-.74,1.93-2.25l2.13.77C177.79,80.7,176.37,81.88,174.24,81.88Zm14.43-.2H186V75.89h-2.9v5.79h-2.64V67.88h2.64v5.38H186V67.88h2.66Zm8.37,0-.63-3.13h-2.7l-.63,3.13h-2.76l3.47-13.8h2.54l3.47,13.8Zm10.29.1-2-5.86h-1.28v5.76h-2.66V67.88h4c1.36,0,4.23.13,4.23,3.87a3.8,3.8,0,0,1-1.81,3.5l2.21,6.21ZM219.8,70.37h-3V81.68h-2.6V70.37h-3V67.88h8.59Zm9.5,0h-5.16v2.83h3.57v2.49h-3.57v3.37h5.16v2.59h-7.82V67.88h7.82Zm7.95,11.38-2-5.86H234v5.76h-2.66V67.88h4c1.36,0,4.22.13,4.22,3.87a3.78,3.78,0,0,1-1.81,3.5L240,81.46Z" transform="translate(-123.56 -30.77)"/><path class="cls-1" d="M214.39,147.22a1.36,1.36,0,0,0-1.52-1.47h-1.05v3H213C213.66,148.79,214.39,148.47,214.39,147.22Z" transform="translate(-123.56 -30.77)"/><path class="cls-1" d="M232.41,145.73h-1.07V149h1.25c.91,0,1.6-.29,1.6-1.64S233.3,145.73,232.41,145.73Z" transform="translate(-123.56 -30.77)"/><path class="cls-1" d="M213,151.29h-1.15v3.5h1.07c1,0,1.9-.27,1.9-1.74A1.7,1.7,0,0,0,213,151.29Z" transform="translate(-123.56 -30.77)"/><path class="cls-1" d="M143.48,131.39a64.81,64.81,0,0,0,124.12,0Zm39.86,25.7h-2.5v-8.72l-1.74,6.25h-1.78l-1.74-6.25v8.72H173.1V143.38h3.41l1.7,6.24,1.72-6.24h3.41Zm10.55-11.21h-5.13v2.81h3.56v2.47h-3.56v3.36h5.13v2.57h-7.75V143.38h7.75Zm12.3,11.21h-2.5v-8.72L202,154.62h-1.78l-1.73-6.25v8.72H196V143.38h3.42l1.69,6.24,1.72-6.24h3.41Zm7.13,0h-4.68v-2.33h.56v-9h-.56v-2.4h4.52c1,0,3.87.37,3.87,3.55a3.32,3.32,0,0,1-1.37,3,3.74,3.74,0,0,1,1.88,3.55C217.54,156.84,214.47,157.09,213.32,157.09Zm13.33-11.21h-5.13v2.81h3.56v2.47h-3.56v3.36h5.13v2.57H218.9V143.38h7.75Zm7.94,11.3-2-5.82h-1.27v5.73h-2.63V143.38h4c1.36,0,4.2.12,4.2,3.84a3.76,3.76,0,0,1-1.79,3.48l2.22,6.17Z" transform="translate(-123.56 -30.77)"/><polygon class="cls-2" points="71.5 41.67 70.67 45.29 72.32 45.29 71.5 41.67"/><path class="cls-2" d="M145.63,91l7.66,2.52h17.36L150.31,80.91,173.78,93.5H181L156.68,71.81,184.23,93.5h3.58L179.55,83h2l9.36,10.47h2L187.28,83h2.11l6.49,10.47h1.18L193.61,83h.58L194.4,82l.3-1.49,5.22,13h.78L199.18,83h2.12l2.18,10.47h.61L204.41,83h1V80.37l.62,1.84.35,1,.13,0,.32,10.27h.61l2.22-10.63.55-.07,1.59-.18L210.24,93.5H211L215.2,83h2.12L213.88,93.5h1.17L221.53,83h2.11L218,93.5h2L229.33,83h2L223.11,93.5h3.55l13.6-10.71,1.58-.19-.3-.82,12.75-10L229.93,93.5h7.13l23.61-12.67L240.21,93.5h17.21l7.95-2.61-6.55,2.61h8.63a64.84,64.84,0,0,0-123.82,0h8.31Zm100.8-27.1-5.55,7.06c0-.25-.07-.48-.12-.71Zm-9.1-6.36-4.84,9h-.74Zm-6,23.26V67.88h4c1.33,0,4.11.13,4.21,3.68h0c0,.06,0,.12,0,.19a3.78,3.78,0,0,1-1.81,3.5L240,81.46l-2.75.32-1.47-4.4-.38-1.14h0l-.11-.32H234v5.76h-2.66Zm-2.29-7.86v-1h-.62l.08-.13h1.17Zm-1.8-20.08-4.51,13.69h-1Zm-5.78,17.55V67.88h7.82V70.4h-5.16v2.83h3.57v2.49h-3.57v3.37h5.16v2.59h-7.82Zm5.36,6.68-.36.67h-1v-.67Zm-6.71-2.58-1.95,5.93V75.57l1.54-3.85h.41ZM216.53,50l-2.39,16.56h-1.06Zm-5.32,17.91h8.59v2.49h-3V81.68h-2.6V70.37h-3Zm.79,3.84h.88v3.5l-1,7.19-.5-1.4-.8-2.27ZM205.46,49,206,66.55l-.57,0h-.52Zm-4,18.86h4c1.36,0,4.23.13,4.23,3.87a3.8,3.8,0,0,1-1.81,3.5l2.21,6.21H210l-2.64.31-2-5.86h-1.28v5.76h-2.66Zm-1.35,9.29v.07l-2.43-9.68-.26-1h-.59L194.4,50Zm-3.74-9.29,1.56,6.19h0l1.91,7.61H197l-.63-3.13h-2.7l-.6,3h0l0,.16h-2.76l3.47-13.8Zm-6.31.87,1.33,3.31-.59,2.32L190,72.14Zm-5.36,9.4-.2-.37v-.54h.2Zm4.48-11.62h-1l-4.5-13.66Zm-8.67,3.82V67.88h2.64v5.38H186V67.88h2.66v13.8H186V75.89h-2.9v5.79h-2.64Zm-1.35,11.33v.8l-.83-1.06a6.87,6.87,0,0,0,.8-1.17l0,0Zm0-15.15h0v1.3l-5.51-10.25Zm-8.65,4.13h0a5.34,5.34,0,0,1,1-1.64,4.08,4.08,0,0,1,3-1.36c2.16,0,3.56,1.6,4,4l-2.47.54c-.29-1.38-.78-2-1.57-2-1,0-1.53.82-1.7,2.95h0c0,.35,0,.74,0,1.16,0,.15,0,.29,0,.45,0,3.42.52,4.66,1.9,4.66a1.6,1.6,0,0,0,1.38-1h0a3.88,3.88,0,0,0,.25-.5l0,0a5.87,5.87,0,0,0,.22-.6h0a.88.88,0,0,0,.05-.15l2.13.77c-.81,2.81-2.23,4-4.36,4a3.76,3.76,0,0,1-2.86-1.41c-1-1.15-1.48-3-1.48-5.66a12.17,12.17,0,0,1,.51-3.8A3.58,3.58,0,0,1,170.52,70.66Zm4.86,5.44-.2.62a5.38,5.38,0,0,1-.18.53L174,76c0-.37,0-.78,0-1.3v-.17Zm-5.84-6.54a4.16,4.16,0,0,0-.22.48L164.52,64Z" transform="translate(-123.56 -30.77)"/><path class="cls-2" d="M205.34,73.5a3,3,0,0,0,.43,0h.08a2,2,0,0,0,.37-.11h0c.44-.2.72-.64.72-1.5s-.34-1.28-.81-1.46h0a2.7,2.7,0,0,0-.43-.11h-.09l-.45,0h-1.08V73.5h1.26Zm.09-1.89.15,0a1.28,1.28,0,0,1,0,.22,1.75,1.75,0,0,1,0,.29h-.14Z" transform="translate(-123.56 -30.77)"/><path class="cls-2" d="M236.87,71.85c0-1.43-.89-1.6-1.79-1.6H234V73.5h1.26C236.18,73.5,236.87,73.21,236.87,71.85Z" transform="translate(-123.56 -30.77)"/><path class="cls-2" d="M257.69,131.39l7.71,3.08-9.35-3.08H239.48l21.24,13.15-24.51-13.15h-6.77l24.91,22.25-28.26-22.25h-3.31l8.27,10.49H229l-9.37-10.49h-1.78l5.63,10.49H221.3l-6.5-10.49h-1l3.62,11v1.27a4.9,4.9,0,0,0-2.18-1.42l-4.33-10.83h-.64l1.52,10.49h-2.15l-2.19-10.49H207l-.32,10.49h-2.14l-.33-10.49h-.48l-2.61,12.54h0c-.07-.24-.56-2.05-.56-2.05h-1.16l1.51-10.49h-.63L196,141.88h-2.16l3.45-10.49h-1l-6.49,10.49h-2.15l5.62-10.49h-1.76l-9.36,10.49H180.1l8.25-10.49h-3.28l-13.31,10.49h-.16V142l-14.86,11.71,25-22.33H175l-24.64,13.23,21.35-13.23H155.29l-9.63,3.17,7.94-3.17H143.48a64.81,64.81,0,0,0,124.12,0ZM171.6,153.72l-7,7.84,7-8.89Zm2.1,14.21,5.64-10.5v1.16h.15Zm9.64-18v7.13h-2.5v-8.72l-1.74,6.25h-1.78l-1.55-5.57-.19-.68v8.72H173.1V143.38h3.41l1.7,6.24,1.31-4.76.41-1.48h3.41Zm.43,22.65,4.62-14h1Zm10.12-26.73h-5.13v2.81h3.56v2.47h-3.56v3.36h5.13v2.57h-7.75V143.38h7.75Zm0,1.5,0,.07v-.07Zm-2.11,5.28-.15.36h-1.33v-.14l.08-.22Zm2.76,22.82,2.44-16.89H198Zm11.06,1L205,158.59h1.1Zm.63-20.34v1h-2.5v-8.72L202,154.62h-1.78l-1.73-6.25v8.72H196V143.38h3.42l1.69,6.24,1.72-6.24h3.41Zm6.92,2.49h.21c.3,0,.58,0,.86-.06l2.45,16.93Zm4.34-4.24,0,.14a2.78,2.78,0,0,1-.23.67l-.06.12a3,3,0,0,1-.35.54.08.08,0,0,0,0,0,5.22,5.22,0,0,1-.43.39l-.07.06a5,5,0,0,1-.5.29l-.1,0a3.39,3.39,0,0,1-.53.2h0a5.38,5.38,0,0,1-1.11.21l-.64,0h-4.68v-2.33h.56v-9h-.56v-2.4h4.83l.24,0h.08l.32.05h0a5.24,5.24,0,0,1,.79.22l0,0a3,3,0,0,1,.37.17h0a3.57,3.57,0,0,1,.75.56,3.22,3.22,0,0,1,.91,2.27c0,.07,0,.13,0,.2a3.32,3.32,0,0,1-1.37,3,3.74,3.74,0,0,1,1.88,3.55A4.78,4.78,0,0,1,217.45,154.35Zm1.45,2.74V143.38h7.75v2.5h-5.13v2.81h3.56v2.47h-3.56v3.36h5.13v2.57H218.9Zm8.31-8.21v2.54l-.63-1V147.7Zm-5.45,9.71h1l4.61,14Zm9.58-2v.53h-2.63V143.38h4c1.36,0,4.2.12,4.2,3.84a5.62,5.62,0,0,1-.07.85l0,.16a4.32,4.32,0,0,1-.19.69,3.85,3.85,0,0,1-.51.92,3.58,3.58,0,0,1-.43.44l-.1.09c-.15.12-.31.23-.46.33l2.22,6.17-2.73.31-2-5.82h-1.27Zm.32,2h.77l5,9.29Zm5.41-7.65a4.75,4.75,0,0,0,.54-.73l8.9,11.29Z" transform="translate(-123.56 -30.77)"/><path class="cls-2" d="M232.9,149l.13,0,.15,0,.16-.05.1,0,.15-.09.07,0a.86.86,0,0,0,.14-.13l0-.05.12-.17a.17.17,0,0,0,0-.05,2.44,2.44,0,0,0,.1-.24s0,0,0-.05a2.61,2.61,0,0,0,.09-.68c0-1.42-.89-1.59-1.78-1.59h-1.07V149h1.56Z" transform="translate(-123.56 -30.77)"/><path class="cls-2" d="M213,148.79c.69,0,1.42-.32,1.42-1.57a1.36,1.36,0,0,0-1.52-1.47h-1.05v3H213Z" transform="translate(-123.56 -30.77)"/><path class="cls-2" d="M214.7,152.44a2,2,0,0,0-.1-.26l-.07-.12c-.05-.06-.09-.13-.14-.18a.47.47,0,0,0-.1-.1l-.15-.13a.57.57,0,0,0-.13-.08.53.53,0,0,0-.15-.08l-.15-.07-.12,0-.18,0-.07,0-.37,0h-1.15v3.5h1.07a3.47,3.47,0,0,0,.73-.08l.25-.07.12-.06.15-.08.09-.07a1.07,1.07,0,0,0,.16-.14l.06-.06a1.28,1.28,0,0,0,.16-.26,1,1,0,0,0,0-.1,1.6,1.6,0,0,0,.08-.26.43.43,0,0,0,0-.11,3.14,3.14,0,0,0,0-.45,2.28,2.28,0,0,0,0-.48S214.71,152.49,214.7,152.44Z" transform="translate(-123.56 -30.77)"/></svg>