<svg xmlns="http://www.w3.org/2000/svg" width="150" height="150"><switch><g><path fill="#FCA466" stroke="#FB6B21" stroke-width="2" stroke-linecap="round" stroke-linejoin="round" stroke-miterlimit="10" d="M135.3 27.7c-29.1-26.7-60.4 12-60.4 12s-32-38-60.4-12.1c-31.2 28.5 5.6 80.9 60.4 107.4 54.8-26.5 91.6-78.8 60.4-107.3z"/><path opacity=".24" fill="#FB6B21" d="M115.7 99.2c-5.8 1.1-11.1 3.8-16.5 6.2v-17h20.3c.8 0 1.4-.6 1.4-1.4v-7.6c0-.8-.6-1.4-1.4-1.4H99.2V57.8c0-.8-.6-1.4-1.4-1.4h-7.6c-.8 0-1.4.6-1.4 1.4v20.3H68.6c-.8 0-1.4.6-1.4 1.4v7.6c0 .8.6 1.4 1.4 1.4h20.3v20.8c-2 .5-4.1.8-6.3.8-9.6 0-18.4-6.1-23.8-14.1s-7.9-17.5-9.7-26.9c-1.9-10-3.1-20.2-7-29.6C39 32 34.2 25.2 28.2 19.8c-4.6 1.3-9.2 3.8-13.7 7.9-31.2 28.5 5.6 80.9 60.4 107.4 4.8-2.3 9.5-4.9 14-7.6 3.5-2.1 7-4.4 10.3-6.7 9.6-6.7 18.2-14.2 25.3-21.9-2.9-.3-5.9-.2-8.8.3z"/><path fill="none" stroke="#FFF" stroke-width="2" stroke-linecap="round" stroke-linejoin="round" stroke-miterlimit="10" d="M134.9 41c1.1 1.9 1.9 3.9 2.4 6M113.1 27.2c5.8 0 11.1 2.3 16.3 7"/><path fill="#FFF" stroke="#FB6B21" stroke-width="2" stroke-linecap="round" stroke-linejoin="round" stroke-miterlimit="10" d="M125.4 73.6h-21.7V51.9H93.4v21.7H71.7v10.3h21.7v51.2h10.3V83.9h21.7z"/></g></switch></svg>