<svg height="151.6" width="162.6" xmlns="http://www.w3.org/2000/svg"><path d="M81.3 4.1c-39.8 0-72 32.2-72 72s32.2 72 72 72 72-32.2 72-72c0-21.6-9.5-41-24.6-54.2L81.3 76.1v-72z" style="fill:#fda360;stroke:#fd6b00;stroke-width:2;stroke-linecap:round;stroke-linejoin:round;stroke-miterlimit:10"/><path d="M127.1 119.2c-12.1 7.4-28.1 6.8-40.5.1-4.8-2.6-9.1-6-12.7-10 1.2.2 2.4.3 3.6.3 15.1 0 27.3-12.3 27.3-27.3 0-8.6-4-16.3-10.2-21.3L81.3 76.1V55.2c-1.3-.2-2.5-.3-3.8-.3-8.3 0-15.7 3.7-20.7 9.6-1.6-16.2-1.8-32.8-9.1-47.2-.6-1.3-1.3-2.5-2.1-3.7A71.72 71.72 0 0 0 9.3 76.1c0 39.8 32.2 72 72 72 33.5 0 61.7-22.9 69.7-53.9-7.7 8.7-14 19-23.9 25z" fill="#fd6b00" opacity=".24"/><path d="M121.2 30.1c-10.7-9.3-24.7-15-39.9-15V76z" style="fill:#fddec8;stroke:#fd6b00;stroke-width:2;stroke-linecap:round;stroke-linejoin:round;stroke-miterlimit:10"/><path d="M81.3 103.4C66.2 103.4 54 91.1 54 76.1 54 61 66.2 48.8 81.3 48.8s27.3 12.3 27.3 27.3-12.3 27.3-27.3 27.3z" style="fill:#fff;stroke:#fd6b00;stroke-width:2;stroke-linecap:round;stroke-linejoin:round;stroke-miterlimit:10"/><path d="M93.3 71.4c-5.3-5.1-12 2.1-12 2.1s-6.6-7.2-12-2.1c-6 5.7-.8 14.7 11 20.8.6.3 1.3.3 1.9 0 11.9-6.2 17-15.1 11.1-20.8z" fill="#fd6b00" opacity=".24"/><path d="M93.3 66.6c-5.3-5.1-12 2.1-12 2.1s-6.6-7.2-12-2.1c-6 5.7-.8 14.7 11 20.8.6.3 1.3.3 1.9 0 11.9-6.2 17-15.1 11.1-20.8z" style="fill:#fd6b00;stroke:#fd6b00;stroke-width:2;stroke-linecap:round;stroke-linejoin:round;stroke-miterlimit:10"/><path d="M42.6 122.6c-.5 0-.9-.1-1.3-.2s-.7-.3-1-.5-.5-.5-.6-.8-.2-.7-.2-1.1c0-.6.2-1.1.5-1.5s.8-.7 1.3-.8c-.5-.2-.9-.5-1.1-.8-.2-.4-.4-.8-.4-1.3 0-.3.1-.7.2-1s.3-.6.6-.8.5-.4.9-.5c.3-.1.7-.2 1.2-.2.4 0 .8.1 1.2.2.3.1.6.3.9.5s.4.5.6.8c.1.3.2.6.2 1 0 .5-.1.9-.4 1.3s-.6.6-1.1.8c.6.2 1 .4 1.3.8s.5.9.5 1.5c0 .4-.1.8-.2 1.1-.2.3-.4.6-.6.8-.3.2-.6.4-1 .5-.6.2-1 .2-1.5.2zm0-.9c.3 0 .6 0 .8-.1s.4-.2.6-.4.3-.3.4-.6c.1-.2.1-.5.1-.7 0-.3-.1-.6-.2-.8s-.2-.4-.4-.6l-.6-.3c-.2-.1-.5-.1-.7-.1s-.5 0-.7.1l-.6.3c-.2.1-.3.3-.4.6-.1.2-.2.5-.2.8s0 .5.1.7.2.4.4.6.4.3.6.4c.3.1.5.1.8.1zm0-4.5c.3 0 .6 0 .8-.1s.4-.2.5-.4.2-.3.3-.5.1-.4.1-.6 0-.4-.1-.6-.2-.4-.3-.5-.3-.3-.5-.3c-.2-.1-.5-.1-.7-.1s-.5 0-.7.1-.4.2-.5.3-.2.3-.3.5-.1.4-.1.6 0 .4.1.6.2.4.3.5c.1.2.3.3.5.4.1.1.3.1.6.1zm7.8 5.4c-.5 0-.9-.1-1.3-.2s-.7-.3-1-.5-.5-.5-.6-.8-.2-.7-.2-1.1c0-.6.2-1.1.5-1.5s.8-.7 1.3-.8c-.5-.2-.9-.5-1.1-.8-.2-.4-.4-.8-.4-1.3 0-.3.1-.7.2-1s.3-.6.6-.8.5-.4.9-.5c.3-.1.7-.2 1.2-.2.4 0 .8.1 1.2.2.3.1.6.3.9.5s.4.5.6.8c.1.3.2.6.2 1 0 .5-.1.9-.4 1.3s-.6.6-1.1.8c.6.2 1 .4 1.3.8s.5.9.5 1.5c0 .4-.1.8-.2 1.1-.2.3-.4.6-.6.8-.3.2-.6.4-1 .5-.6.2-1 .2-1.5.2zm0-.9c.3 0 .6 0 .8-.1s.4-.2.6-.4.3-.3.4-.6c.1-.2.1-.5.1-.7 0-.3-.1-.6-.2-.8s-.2-.4-.4-.6l-.6-.3c-.2-.1-.5-.1-.7-.1s-.5 0-.7.1l-.6.3c-.2.1-.3.3-.4.6-.1.2-.2.5-.2.8s0 .5.1.7.2.4.4.6.4.3.6.4c.3.1.5.1.8.1zm0-4.5c.3 0 .6 0 .8-.1s.4-.2.5-.4.2-.3.3-.5.1-.4.1-.6 0-.4-.1-.6-.2-.4-.3-.5-.3-.3-.5-.3c-.2-.1-.5-.1-.7-.1s-.5 0-.7.1-.4.2-.5.3-.2.3-.3.5-.1.4-.1.6 0 .4.1.6.2.4.3.5c.1.2.3.3.5.4.1.1.3.1.6.1zm8.7-1.7c0 .4-.1.7-.2 1s-.3.5-.5.7-.4.3-.7.5c-.3.1-.5.2-.8.2s-.6-.1-.8-.2-.5-.3-.7-.5-.3-.4-.4-.7-.2-.6-.2-1 .1-.7.2-1 .2-.5.4-.7.4-.4.7-.5c.2-.1.5-.2.8-.2s.6.1.8.2c.3.1.5.3.7.5s.3.4.4.7c.2.3.3.6.3 1zm3.2-2.1.2-.2c.1 0 .1-.1.3-.1h.8l-6.8 9.1c0 .1-.1.1-.2.1s-.1.1-.2.1h-.9zm-4.1 2.1c0-.3 0-.5-.1-.7s-.1-.4-.2-.5-.2-.2-.4-.3-.3-.1-.5-.1-.3 0-.5.1c-.1.1-.3.1-.4.3-.1.1-.2.3-.2.5-.1.2-.1.4-.1.7s0 .5.1.7.1.4.2.5.2.2.4.3c.1.1.3.1.5.1s.3 0 .5-.1c.1-.1.3-.1.4-.3.1-.1.2-.3.2-.5s.1-.5.1-.7zm6 4.8c0 .4-.1.7-.2 1s-.3.5-.5.7-.4.3-.7.5c-.2.1-.5.2-.8.2s-.6-.1-.8-.2-.5-.3-.7-.5-.3-.4-.4-.7-.2-.6-.2-1 .1-.7.2-1 .2-.5.4-.7.4-.4.7-.5c.2-.1.5-.2.8-.2s.6.1.8.2c.3.1.5.3.7.5s.3.4.4.7c.3.3.3.7.3 1zm-.9 0c0-.3 0-.5-.1-.7s-.1-.4-.3-.5c-.1-.1-.2-.2-.4-.3-.1-.1-.3-.1-.5-.1s-.3 0-.5.1c-.1.1-.3.1-.4.3-.1.1-.2.3-.2.5-.1.2-.1.4-.1.7s0 .5.1.7.1.4.2.5.2.2.4.3c.1.1.3.1.5.1s.3 0 .5-.1c.1-.1.3-.1.4-.3.1-.1.2-.3.3-.5s.1-.4.1-.7zm5.4 4.5V116h.7c.2 0 .3.1.3.2l.1.8c.3-.3.6-.6 1-.8s.8-.3 1.3-.3c.4 0 .7.1 1 .2s.6.4.8.6c.2.3.4.6.5 1.1.1.4.2.9.2 1.4s-.1.9-.2 1.4c-.1.4-.3.8-.6 1.1-.2.3-.5.5-.9.7s-.8.3-1.2.3-.8-.1-1-.2c-.3-.1-.5-.3-.8-.6v2.9zm2.9-8c-.4 0-.7.1-1 .3s-.5.4-.8.7v3.2c.2.3.4.5.7.6s.5.2.8.2c.6 0 1.1-.2 1.4-.7.3-.4.5-1.1.5-1.9 0-.4 0-.8-.1-1.1s-.2-.6-.3-.8-.3-.3-.5-.4-.4-.1-.7-.1zm4.5 5.7v-6.6h.7c.1 0 .2 0 .3.1s.1.1.1.2l.1 1c.2-.5.5-.8.8-1.1s.7-.4 1.2-.4c.2 0 .3 0 .5.1.1 0 .3.1.4.2l-.1.9c0 .1-.1.2-.2.2s-.2 0-.3-.1-.4 0-.6 0c-.4 0-.7.1-1 .4s-.5.6-.7 1v4.2h-1.2zm8.2-6.7c.5 0 .9.1 1.3.2s.7.4 1 .7.5.7.6 1.1.2.9.2 1.4-.1 1-.2 1.4-.4.8-.6 1.1c-.3.3-.6.5-1 .7s-.8.2-1.3.2-.9-.1-1.3-.2-.7-.4-1-.7-.5-.7-.6-1.1-.2-.9-.2-1.4.1-1 .2-1.4.4-.8.6-1.1c.3-.3.6-.5 1-.7s.8-.2 1.3-.2zm0 5.9c.6 0 1.1-.2 1.5-.7.3-.4.5-1 .5-1.8s-.2-1.4-.5-1.8-.8-.7-1.5-.7c-.3 0-.6.1-.9.2-.2.1-.4.3-.6.5s-.3.5-.4.8-.1.7-.1 1 0 .7.1 1 .2.6.4.8.4.4.6.5c.3.2.5.2.9.2zm7-5.9c.3 0 .6 0 .8.1s.5.2.7.3h1.8v.4c0 .1-.1.2-.3.3l-.7.1c.1.3.2.6.2.9s-.1.6-.2.9-.3.5-.5.7-.5.3-.8.4-.6.1-1 .1c-.3 0-.6 0-.9-.1l-.3.3c-.1.1-.1.2-.1.3 0 .2.1.3.2.4s.3.1.5.2c.2 0 .4.1.7.1h.8c.3 0 .5 0 .8.1.3 0 .5.1.7.2s.4.3.5.5.2.4.2.8c0 .3-.1.6-.2.8s-.3.5-.6.7-.6.4-1 .5-.8.2-1.3.2-.9 0-1.3-.1-.7-.2-.9-.4-.4-.3-.5-.6-.2-.4-.2-.7.1-.6.3-.8.5-.4.8-.5c-.2-.1-.3-.2-.4-.3s-.2-.3-.2-.6c0-.1 0-.2.1-.3 0-.1.1-.2.2-.3l.3-.3c.1-.1.2-.2.4-.2-.3-.2-.6-.4-.8-.7s-.3-.7-.3-1.1c0-.3.1-.6.2-.9s.3-.5.5-.7.5-.3.8-.4c.3-.2.7-.3 1-.3zm2.1 7.1c0-.2 0-.3-.1-.4s-.2-.2-.4-.2c-.2-.1-.3-.1-.5-.1h-1.3c-.2 0-.5 0-.7-.1-.2.1-.4.3-.6.4-.2.2-.2.4-.2.6 0 .1 0 .3.1.4l.3.3c.2.1.4.2.6.2.2.1.5.1.8.1s.6 0 .8-.1.5-.1.6-.2c.2-.1.3-.2.4-.4s.2-.4.2-.5zm-2.1-3.6c.2 0 .4 0 .6-.1s.3-.2.5-.3c.1-.1.2-.3.3-.4.1-.2.1-.3.1-.5 0-.4-.1-.7-.4-1-.2-.2-.6-.4-1.1-.4s-.8.1-1.1.4-.4.6-.4 1c0 .2 0 .4.1.5.1.2.2.3.3.4s.3.2.4.3c.3.1.5.1.7.1zm4.7 3.2v-6.6h.7c.1 0 .2 0 .3.1s.1.1.1.2l.1 1c.2-.5.5-.8.8-1.1s.7-.4 1.2-.4c.2 0 .3 0 .5.1.1 0 .3.1.4.2l-.1.9c0 .1-.1.2-.2.2s-.2 0-.3-.1-.3-.1-.5-.1c-.4 0-.7.1-1 .4s-.5.6-.7 1v4.2zm10.1 0h-.5c-.1 0-.2 0-.3-.1-.1 0-.1-.1-.1-.2l-.1-.6c-.2.2-.3.3-.5.4s-.3.2-.5.3-.4.1-.6.2-.4.1-.7.1-.5 0-.7-.1l-.6-.3c-.2-.1-.3-.3-.4-.5s-.1-.5-.1-.8.1-.5.2-.8c.1-.2.4-.5.7-.6.3-.2.7-.3 1.3-.5.5-.1 1.1-.2 1.9-.2v-.5c0-.5-.1-.9-.3-1.2s-.5-.4-1-.4c-.3 0-.5 0-.7.1s-.4.2-.5.2c-.1.1-.3.2-.4.2-.1.1-.2.1-.3.1s-.1 0-.2-.1c-.1 0-.1-.1-.1-.2l-.2-.4c.4-.4.8-.6 1.2-.8s.9-.3 1.4-.3c.4 0 .7.1 1 .2s.5.3.7.5.3.5.4.8.1.6.1 1v4.5zm-3-.7c.2 0 .4 0 .6-.1s.3-.1.5-.2c.1-.1.3-.2.4-.3s.3-.2.4-.4v-1.4c-.5 0-1 0-1.4.1s-.7.2-.9.3-.4.2-.5.4c-.1.1-.2.3-.2.5s0 .3.1.5c.1.1.1.2.2.3s.2.1.3.2.3.1.5.1zm5 .7v-6.6h.7c.2 0 .3.1.3.2l.1.7c.2-.3.5-.5.8-.7s.7-.3 1-.3c.4 0 .8.1 1.1.4s.5.6.6 1c.1-.2.2-.4.4-.6.1-.2.3-.3.5-.4s.4-.2.6-.2.4-.1.6-.1c.3 0 .7.1.9.2s.5.3.7.5.3.5.4.8.1.7.1 1.1v4.2h-1.2v-4.2c0-.5-.1-.9-.3-1.2s-.6-.4-1-.4c-.2 0-.4 0-.5.1-.2.1-.3.2-.5.3s-.2.3-.3.5-.1.4-.1.7v4.2h-1v-4.2c0-.5-.1-.9-.3-1.2s-.5-.4-.9-.4c-.3 0-.6.1-.8.2-.2.2-.5.4-.7.6v4.9h-1.2zm14.7-5.5c-.1.1-.1.1-.2.1s-.1 0-.2-.1c-.1 0-.2-.1-.3-.2s-.3-.1-.4-.2c-.2 0-.4-.1-.6-.1s-.4 0-.5.1-.3.1-.4.2l-.3.3c-.1.1-.1.2-.1.4s0 .3.1.4.2.2.4.3.3.2.5.2c.2.1.4.1.6.2s.4.2.6.2c.2.1.4.2.5.3s.3.3.4.5.1.4.1.7-.1.6-.2.8-.3.5-.5.7-.5.3-.8.4-.7.2-1.1.2c-.5 0-.9-.1-1.2-.2-.4-.1-.7-.3-.9-.6l.3-.4c0-.1.1-.1.1-.1h.2c.1 0 .2 0 .2.1.1.1.2.1.3.2s.3.1.4.2c.2.1.4.1.7.1.2 0 .4 0 .6-.1s.3-.1.4-.2.2-.2.2-.3c.1-.1.1-.3.1-.4 0-.2 0-.3-.1-.5s-.2-.2-.4-.3-.3-.2-.5-.2c-.2-.1-.4-.1-.6-.2s-.4-.1-.6-.2-.4-.2-.5-.3c-.2-.1-.3-.3-.4-.5s-.1-.4-.1-.7.1-.5.2-.7.3-.4.5-.6.4-.3.7-.4.6-.2 1-.2.8.1 1.2.2c.3.1.6.3.9.6z" fill="#fff"/></svg>